<svg width="16" height="16" viewBox="0 0 512 512" xmlns="http://www.w3.org/2000/svg" xmlns:xlink="http://www.w3.org/1999/xlink" fill="#000000"><path class="color1" d="M381.5,6h-251c-23.7,0-42.9,19.3-42.9,42.9V463c0,23.7,19.3,42.9,42.9,42.9h250.9c23.7,0,42.9-19.3,42.9-42.9V48.9 C424.4,25.3,405.1,6,381.5,6z M383.8,463.1c0,1.2-1.1,2.3-2.3,2.3h-251c-1.2,0-2.3-1.1-2.3-2.3v-87.2h255.6V463.1z M383.8,335.2 H128.2V48.9c0-1.2,1.1-2.3,2.3-2.3h250.9c1.2,0,2.3,1.1,2.3,2.3v286.3H383.8z M235.4,421.4c0-11.2,9.1-20.3,20.3-20.3 s20.6,9.1,20.6,20.3c0,11.2-8.8,20.3-20,20.3h-0.5C244.5,441.7,235.4,432.6,235.4,421.4z"></path></svg>