<svg width="16" height="16" viewBox="0 0 512 512" xmlns="http://www.w3.org/2000/svg"><path class="color1" d="M381.5 6h-251c-23.7 0-42.9 19.3-42.9 42.9V463c0 23.7 19.3 42.9 42.9 42.9h250.9c23.7 0 42.9-19.3 42.9-42.9V48.9C424.4 25.3 405.1 6 381.5 6zm2.3 457.1c0 1.2-1.1 2.3-2.3 2.3h-251c-1.2 0-2.3-1.1-2.3-2.3v-87.2h255.6v87.2zm0-127.9H128.2V48.9c0-1.2 1.1-2.3 2.3-2.3h250.9c1.2 0 2.3 1.1 2.3 2.3v286.3h.1zm-148.4 86.2c0-11.2 9.1-20.3 20.3-20.3s20.6 9.1 20.6 20.3c0 11.2-8.8 20.3-20 20.3h-.5c-11.3 0-20.4-9.1-20.4-20.3z"/></svg>