<svg xmlns="http://www.w3.org/2000/svg" width="512" height="512"><path xmlns="http://www.w3.org/2000/svg" d="M199 214.244a5 5 0 005-5v-38.91a5 5 0 00-10 0v38.91a5 5 0 005 5zm1.076 143.479a5 5 0 00-5 5v.452a5 5 0 0010 0v-.452a5 5 0 00-5-5zm0-56.752a5 5 0 00-5 5v38.943a5 5 0 0010 0v-38.943a5 5 0 00-5-5zm142.994-57.629a5 5 0 005-5V177.96a5 5 0 10-10 0v60.382a5 5 0 005 5z" fill="#002d4c" data-original="#000000"/><path xmlns="http://www.w3.org/2000/svg" d="M405.6 87.578a45.172 45.172 0 00-41.586 35.529 67.1 67.1 0 01-4.653-24.64V56.783a67.9 67.9 0 017.466-30.883 5 5 0 00-4.449-7.284H304.9a5 5 0 00-4.449 7.284 67.9 67.9 0 017.468 30.888v41.679a67.173 67.173 0 01-5.959 27.755l-1.057 2.348a12.989 12.989 0 00-.311 22.457 86.13 86.13 0 013.317 23.63v59.29a86.249 86.249 0 01-2.36 20.034l-1.061 4.44a13.074 13.074 0 00-1.968 1.489 4.8 4.8 0 00.142-1.381 45.15 45.15 0 00-47.522-42.537 5 5 0 00-4.716 5.269 45.063 45.063 0 0020.453 35.294 44.956 44.956 0 00-29.477 19.684 5 5 0 001.462 6.917 44.78 44.78 0 0024.517 7.321 45.516 45.516 0 009.414-.989 44.761 44.761 0 0023.457-13.158 13.154 13.154 0 004.16 4.182l.413 2.036a156.074 156.074 0 013.09 30.869V355.4a155.84 155.84 0 01-3.479 32.653 12.982 12.982 0 00.172 22.175l1.034 3.545a90.064 90.064 0 013.61 25.251v20.958a89.9 89.9 0 01-5.065 29.789 5 5 0 003.171 6.407 97.208 97.208 0 0060.57 0 5 5 0 003.171-6.407 89.9 89.9 0 01-5.065-29.789v-20.958a90.064 90.064 0 013.61-25.251l1.034-3.545a12.982 12.982 0 00.172-22.175 155.84 155.84 0 01-3.479-32.653v-41.983a156.046 156.046 0 013.091-30.869l.412-2.037a12.981 12.981 0 00-.082-22.09l-1.061-4.439a86.317 86.317 0 01-2.36-20.035v-59.29a86.13 86.13 0 013.317-23.63 13.013 13.013 0 006.306-11.134c0-.193-.012-.383-.02-.575a45.1 45.1 0 0037.9-47.024 5.02 5.02 0 00-5.272-4.716zM257.129 226.094a35.185 35.185 0 0130.836 27.6 35.184 35.184 0 01-30.836-27.6zm-8.048 51.289a35.184 35.184 0 0140.491-8.556 35.178 35.178 0 01-40.491 8.556zm63.544-248.772h42.032a77.994 77.994 0 00-5.3 28.172v41.684a77.061 77.061 0 005.392 28.407h-42.22a77.065 77.065 0 005.392-28.407V56.783a77.994 77.994 0 00-5.296-28.172zm-1.4 459.468a99.835 99.835 0 004.022-28.1v-20.955a100.1 100.1 0 00-3.7-26.916h44.182a100.1 100.1 0 00-3.7 26.916v20.958a99.835 99.835 0 004.022 28.1 87.1 87.1 0 01-44.823-.003zm48.744-85.971H307.31a3.02 3.02 0 110-6.039h52.662a3.02 3.02 0 110 6.039zm-3.725-16.039h-45.209a165.952 165.952 0 002.878-30.669v-41.983a166.015 166.015 0 00-2.921-30.907h45.3a166.064 166.064 0 00-2.922 30.907V355.4a165.952 165.952 0 002.877 30.669zm3.725-113.559H307.31a3.02 3.02 0 110-6.039h52.662a3.02 3.02 0 110 6.039zm-48.556-119.6h44.45a96.092 96.092 0 00-2.5 21.744v59.29A96.308 96.308 0 00356 256.306l.04.165h-44.8l.04-.165a96.308 96.308 0 002.633-22.359v-59.29a96.092 96.092 0 00-2.497-21.744zm48.556-10H307.31a3.02 3.02 0 110-6.039h52.662a3.02 3.02 0 110 6.039zm32.021-24.71a34.835 34.835 0 01-18.827 10.924 35.185 35.185 0 0127.607-30.846 34.847 34.847 0 01-8.78 19.922z" fill="#002d4c" data-original="#000000"/><path xmlns="http://www.w3.org/2000/svg" d="M228.85 390.124a13.028 13.028 0 00-6.07-9.7 155.888 155.888 0 01-3.479-32.652v-41.981a155.972 155.972 0 013.092-30.869l.412-2.036a12.983 12.983 0 00-.082-22.092l-1.06-4.439a86.235 86.235 0 01-2.362-20.034v-59.29a86.126 86.126 0 013.318-23.63 13.146 13.146 0 004.85-5.177 45.167 45.167 0 0044.005 35.263 5 5 0 005-5 45.123 45.123 0 00-23.163-39.387 58.546 58.546 0 0036.529-54.175 5 5 0 00-5-5 58.53 58.53 0 00-58.338 54.8 13.139 13.139 0 00-4.2-3.785l-1.052-2.34a67.195 67.195 0 01-5.959-27.756V49.157a67.912 67.912 0 017.468-30.889 5 5 0 00-4.448-7.284h-57.474a5 5 0 00-4.448 7.284 67.912 67.912 0 017.468 30.889V90.84a67.195 67.195 0 01-5.957 27.76l-1.057 2.347a12.99 12.99 0 00-.312 22.458 86.088 86.088 0 013.318 23.63v59.29a86.3 86.3 0 01-2.361 20.035l-.917 3.838a45.108 45.108 0 00-51.808-22.819 5 5 0 00-3.524 6.13 44.887 44.887 0 0049.815 32.906 13.1 13.1 0 005.292 6.475l.411 2.036a155.972 155.972 0 013.092 30.869v41.983a155.9 155.9 0 01-3.478 32.652 12.982 12.982 0 00.17 22.176l1.035 3.544a90.112 90.112 0 013.61 25.252v20.958a89.908 89.908 0 01-5.065 29.789 5 5 0 003.17 6.407 97.208 97.208 0 0060.57 0 5 5 0 003.171-6.407 89.917 89.917 0 01-5.065-29.789V431.4a90.05 90.05 0 013.61-25.252l1.034-3.544a13.216 13.216 0 001.257-.866 58.52 58.52 0 0054.834 38.5 58.774 58.774 0 0015.325-2.045 5 5 0 003.524-6.13 58.533 58.533 0 00-68.701-41.939zm37.207-227.054a35.184 35.184 0 01-29.265-29.264 35.183 35.183 0 0129.265 29.264zm13.5-82.859a48.56 48.56 0 01-42.895 42.889 48.558 48.558 0 0142.892-42.889zM127.282 252.183a34.834 34.834 0 01-14.582-16.165 35.139 35.139 0 0135.889 20.637 34.821 34.821 0 01-21.307-4.472zm41.277-231.2h42.03a78.025 78.025 0 00-5.3 28.173V90.84a77.057 77.057 0 005.393 28.407h-42.22a77.057 77.057 0 005.393-28.407V49.157a78.025 78.025 0 00-5.296-28.173zm-1.4 459.469a99.876 99.876 0 004.022-28.1V431.4a100.066 100.066 0 00-3.7-26.916h44.182a100.043 100.043 0 00-3.7 26.916v20.958a99.845 99.845 0 004.022 28.1 87.07 87.07 0 01-44.823-.005zm48.744-85.971h-52.66a3.02 3.02 0 110-6.039h52.663a3.02 3.02 0 010 6.039zm-3.725-16.039h-45.21a165.875 165.875 0 002.879-30.669v-41.982a165.953 165.953 0 00-2.923-30.906h45.3a165.961 165.961 0 00-2.923 30.906v41.983a165.925 165.925 0 002.88 30.669zm3.725-113.558h-52.66a3.02 3.02 0 010-6.04h52.663a3.02 3.02 0 010 6.04zm-48.556-119.6H211.8a96.092 96.092 0 00-2.5 21.744v59.29a96.333 96.333 0 002.635 22.358l.039.166h-44.8l.039-.166a96.333 96.333 0 002.635-22.358v-59.29a96.092 96.092 0 00-2.498-21.741zm48.556-10h-52.66a3.02 3.02 0 110-6.04h52.663a3.02 3.02 0 010 6.04zm38.73 288.47a48.1 48.1 0 01-20.979-24.354 48.563 48.563 0 0152.589 30.239 48.09 48.09 0 01-31.607-5.882z" fill="#002d4c" data-original="#000000"/></svg>