<svg xmlns="http://www.w3.org/2000/svg" xmlns:xlink="http://www.w3.org/1999/xlink">
    <symbol id="ars" viewBox="0 0 19.1 23.02">
        <path
            d="M9.6 23a7.11 7.11 0 0 1-5-2.1c-2-2-3.3-5.4-4.1-10A44.34 44.34 0 0 1 0 4.61v-.1a7.36 7.36 0 0 1 2-2.3A12.46 12.46 0 0 1 9.5 0a12.13 12.13 0 0 1 7.6 2.2 8.39 8.39 0 0 1 2 2.2v.1a44.34 44.34 0 0 1-.5 6.3c-.7 4.6-2.1 8-4.1 10A6.77 6.77 0 0 1 9.6 23zM.6 4.71c0 1 .1 11.4 4.4 15.8a6.32 6.32 0 0 0 8.9.2l.2-.2c4.3-4.4 4.4-14.8 4.4-15.8a6.06 6.06 0 0 0-1.9-2 11.94 11.94 0 0 0-7.1-2C3 .61.9 4.21.6 4.71z"
            transform="translate(0 .01)"
        />
        <path fill="none" d="M15.2 16.51c-1.1 2.6-2.9 4.7-5.8 4.7s-4.6-2.1-5.7-4.7z" transform="translate(0 .01)" />
        <path fill="#061259" d="M15.2 16.51c-1.1 2.6-2.9 4.7-5.8 4.7v-4.7z" transform="translate(0 .01)" />
        <path fill="#061259" d="M9.4 16.51v4.7c-2.8-.1-4.6-2.1-5.7-4.7z" transform="translate(0 .01)" />
        <path fill="none" d="M15.2 15.21H3.7a29.12 29.12 0 0 1-1.7-10s1.6-3.5 7.4-3.5 7.5 3.4 7.5 3.4.1 5.8-1.7 10.1z" transform="translate(0 .01)" />
        <path fill="#d24a46" d="M15.2 15.21H9.4V1.81c5.9 0 7.5 3.4 7.5 3.4a29.12 29.12 0 0 1-1.7 10z" transform="translate(0 .01)" />
        <path fill="#eb4f4a" d="M9.4 1.81v13.4H3.7a29.12 29.12 0 0 1-1.7-10s1.6-3.4 7.4-3.4z" transform="translate(0 .01)" />
        <path
            fill="#d3b377"
            d="M9.2 3.61h1.1a4.71 4.71 0 0 1 3.9 3.5 1.51 1.51 0 0 1 .1.7v1a4.73 4.73 0 0 1-3.4 3.9 1.66 1.66 0 0 1-.7.1h-1a4.61 4.61 0 0 1-3.9-3.4 1.94 1.94 0 0 1-.2-.7v-1a4.61 4.61 0 0 1 3.4-3.9 5.6 5.6 0 0 0 .7-.2zM7.6 5a3.84 3.84 0 0 0-1.1 1.1l2.2 1.3.2-.2zm-1.1 5.4a5.73 5.73 0 0 0 1.1 1.1l1.2-2.2-.2-.2zm6.4-4.3A5.73 5.73 0 0 0 11.8 5l-1.3 2.2.2.2zm-2.3 3.2l1.2 2.2a3.84 3.84 0 0 0 1.1-1.1l-2.1-1.3zm.8 2.4l-.1-.1c-.4-.6-.7-1.2-1.1-1.9 0-.1-.1-.2-.2-.1s-.1.1-.1.2v2.3a3.29 3.29 0 0 0 1.5-.39zM10 4.41v2.3c0 .1-.1.2.1.2a.37.37 0 0 0 .3-.1c.3-.6.7-1.2 1-1.8l.1-.2a4.13 4.13 0 0 0-1.5-.4zM13.6 8a4.13 4.13 0 0 0-.4-1.5l-.2.1-1.9 1a.37.37 0 0 0-.1.3c0 .1.2.1.3.1zM5.8 8h2.3c.1 0 .2 0 .2-.1s0-.2-.1-.2l-1.7-1-.3-.2A8.74 8.74 0 0 0 5.8 8zm.4 2c.7-.4 1.4-.8 2-1.2.1 0 .1-.2.1-.2a.09.09 0 0 0-.1-.1H5.8a8.74 8.74 0 0 0 .4 1.5zM8 11.81a4.13 4.13 0 0 0 1.5.4v-2.4l-.1-.1c-.1 0-.1 0-.2.1s-.2.1-.3.3zM13.1 10a2.65 2.65 0 0 0 .4-1.5h-2.4l-.1.1c0 .1 0 .1.1.1a22.09 22.09 0 0 0 2 1.3zM8 4.81a.35.35 0 0 1 .1.2l1 1.9c0 .1.1.1.2.1s.1-.1.1-.2v-2.4a4.25 4.25 0 0 0-1.4.4zm2.2 3.4a.68.68 0 0 0-.4-.5h-.1c-.3 0-.4.3-.4.5a.43.43 0 0 0 .4.4c.2.1.4-.1.5-.4z"
            transform="translate(0 .01)"
        />
    </symbol>
    <symbol id="bur" viewBox="0 0 20.4 22.8">
        <g id="Layer_2">
            <g id="Layer_1-2">
                <path fill="#fff" d="M10.2 22.6c-2.2 0-5.4-2.7-9-5.7a8.7 8.7 0 0 1-.9-1.1V.3h19.9v15.5a10.59 10.59 0 0 1-1 1.2c-4.3 3.4-6.7 5.6-9 5.6z" />
                <path
                    d="M10.2 22.8c-2.2 0-5.1-2.4-8.5-5.2l-.7-.5a10.59 10.59 0 0 1-1-1.2V0h20.4v15.9a10.59 10.59 0 0 1-1 1.2l-1.3 1.1c-3.6 2.9-5.8 4.6-7.9 4.6zM.5 15.7a4.3 4.3 0 0 0 .9 1l.7.6c3.3 2.7 6.1 5 8.1 5s4.1-1.8 7.5-4.5l1.3-1.1a9 9 0 0 0 .9-1V.5H.5z"
                />
                <path fill="#9b154b" d="M6.3 2v16.9s2.3 2 4 1.9c0 0 1.4.1 3.8-1.7V2z" />
                <path fill="#74bce8" d="M18.5 2v12.9s-1.3 2.2-5.3 4.8V2z" />
                <path fill="#fccc00" d="M2 2v12.9a22.44 22.44 0 0 0 5.4 4.8V2z" />
            </g>
        </g>
    </symbol>
    <symbol id="che" viewBox="0 0 22.8 22.8">
        <g id="Layer_2">
            <g id="Layer_1-2">
                <circle cx="11.4" cy="11.4" r="11" fill="#fff" />
                <path d="M11.4 22.8a11.4 11.4 0 1 1 11.4-11.4 11.39 11.39 0 0 1-11.4 11.4zm0-22.1a10.7 10.7 0 1 0 10.7 10.7A10.71 10.71 0 0 0 11.4.7z" />
                <circle cx="11.4" cy="11.4" r="8.7" fill="#0913d8" />
                <circle cx="11.4" cy="11.4" r="6.3" fill="#f7f8ff" />
                <circle cx="11.4" cy="3.8" r=".5" fill="#fff" />
                <circle cx="11.4" cy="19" r=".5" fill="#fff" />
                <circle cx="19" cy="11.4" r=".5" fill="#fff" />
                <circle cx="3.8" cy="11.4" r=".5" fill="#fff" />
                <path
                    fill="#ff131e"
                    d="M14.2 9l-.9-.1V9l1 .5v-.4h.1l1.4.7c.1 0 .2.1.3.2v.2c-.1 0-.1 0-.2.1h-.5l.3.4-.6.6a.75.75 0 0 1-.8.1c-.4-.2-.8-.5-1.2-.7.1.3.1.6.5.8a2.19 2.19 0 0 1 .5.3c.2.1.3.3.1.5l-.4.4a1 1 0 0 0-1-.8c-.1.7.6 1.4 1.8 1.8-.4.7-.3.8-1.2.5a2.56 2.56 0 0 1-1.3-1c-.1-.1-.1-.2-.2-.3a2.57 2.57 0 0 0 2 2 6 6 0 0 1-1.1.6h-.2a2.65 2.65 0 0 1-1.9-1.8v-1.2a2 2 0 0 0-.3 1.1 5.64 5.64 0 0 0 .4 1.2 3.92 3.92 0 0 0 .8 1 3.21 3.21 0 0 1-1.7-.2c-.1 0-.1-.1-.2-.1a2.27 2.27 0 0 1-.3-3.3l.1-.1.1-.1a1.94 1.94 0 0 0-.9 1.4V15a2.14 2.14 0 0 1-.8-2.9 2 2 0 0 1 .9-.9 2.55 2.55 0 0 0-1.5 1.2 3.19 3.19 0 0 1 .3-1.9 3.67 3.67 0 0 1 3.5-2.3h2a.65.65 0 0 1 .9.5c.1.1.1.2.2.3zm-.7-2.2l.5-.3c-.1.5-.2.9-.3 1.3-.1 0-.1.1-.2.1h-2.8a.35.35 0 0 1-.2-.1l-.3-1.2.5.3c-.1.2-.2.4 0 .6s.4.1.4-.1l-.1-.6h.3v.4a.21.21 0 0 0 .4 0c.1-.2.1-.3-.1-.6L12 6l.4.6c-.2.2-.3.4-.1.6a.3.3 0 0 0 .4 0l.1-.5c.1 0 .3 0 .3.1a.9.9 0 0 1-.1.5c0 .1.2.2.3.2a.1.1 0 0 0 .1-.1c.3-.2.2-.4.1-.6z"
                />
            </g>
        </g>
    </symbol>
    <symbol id="avf" viewBox="0 0 16.6 22.3">
        <g id="Layer_2">
            <g id="Layer_1-2">
                <path fill="#fff" d="M16.3.3v12.1s0 3.9-3 5.7c-3.7 2.2-5 2.5-5 4.2 0-1.7-1.3-2-5-4.2-3-1.8-3-5.7-3-5.7V.3z" />
                <path
                    d="M8.6 22.3H8c0-1.1-.6-1.5-2.8-2.8-.6-.3-1.2-.7-2-1.2C0 16.5 0 12.5 0 12.4V0h16.6v12.4c0 .2 0 4.1-3.2 6l-2 1.2c-2.2 1.2-2.8 1.5-2.8 2.7zM.6.6v11.8s0 3.8 2.9 5.5c.8.5 1.4.8 2 1.2 1.5.7 2.4 1.2 2.8 1.9.4-.7 1.3-1.2 2.8-2.1.6-.3 1.2-.7 2-1.2C16 16 16 12.3 16 12.2V.6z"
                />
                <path fill="#5bb4d3" d="M14.7 2.5v9.6a5.82 5.82 0 0 1-2.4 4.6c-2.9 1.8-4 2-4 3.3 0-1.4-1-1.6-4-3.3-2.4-1.4-2.4-4.6-2.4-4.6V2.5z" />
                <path fill="#b82774" d="M1.9 2.5h12.8v4.1H1.9z" />
                <path fill="#ffce00" d="M11.2 11.9H9l-.7-2v-.1.1l-.7 2H5.4l1.8 1.3-.7 2.1L8.3 14l1.8 1.3-.7-2.1 1.8-1.3z" />
            </g>
        </g>
    </symbol>
    <symbol id="brh" viewBox="0 0 23.4 23.3">
        <circle cx="11.7" cy="11.7" r="11.3" fill="#fff" />
        <path d="M11.7 23.3a11.65 11.65 0 1 1 0-23.3 11.65 11.65 0 0 1 11.7 11.7 11.76 11.76 0 0 1-11.7 11.6zm0-22.6a10.9 10.9 0 1 0 10.9 10.9A10.93 10.93 0 0 0 11.7.7z" />
        <path fill="#489ab7" d="M11.7 2.4a9.3 9.3 0 1 0 9.3 9.3 9.35 9.35 0 0 0-9.3-9.3zm0 16a6.7 6.7 0 1 1 6.7-6.7 6.7 6.7 0 0 1-6.7 6.7z" />
        <path
            fill="none"
            d="M18.4 11.7a6.92 6.92 0 0 1-3 5.6 6.25 6.25 0 0 1-2.2 1 7.72 7.72 0 0 1-1.5.2 7.72 7.72 0 0 1-1.5-.2 5.54 5.54 0 0 1-2.2-1 6.92 6.92 0 0 1-3-5.6 6.78 6.78 0 0 1 3-5.6 6.25 6.25 0 0 1 2.2-1 7.57 7.57 0 0 1 1.5-.1 7.72 7.72 0 0 1 1.5.2 5.54 5.54 0 0 1 2.2 1 6.47 6.47 0 0 1 3 5.5z"
        />
        <path fill="#eaf3fc" d="M7.9 6.1v11.1A6.77 6.77 0 0 1 5 11.7a7 7 0 0 1 2.9-5.6z" />
        <path fill="#bcddfd" d="M10.2 5.1v13a5.54 5.54 0 0 1-2.2-1v-11a7.39 7.39 0 0 1 2.2-1z" />
        <path fill="#eaf3fc" d="M13.2 5.1v13a7.72 7.72 0 0 1-1.5.2 7.72 7.72 0 0 1-1.5-.2v-13a7.57 7.57 0 0 1 1.5-.1 7.57 7.57 0 0 1 1.5.1z" />
        <path fill="#bcddfd" d="M15.4 6.1v11.1a6.25 6.25 0 0 1-2.2 1v-13a6 6 0 0 1 2.2.9z" />
        <path fill="#eaf3fc" d="M18.4 11.7a6.92 6.92 0 0 1-3 5.6V6.1a6.78 6.78 0 0 1 3 5.6z" />
    </symbol>
    <symbol id="lee" viewBox="0 0 19 22.81">
        <g id="Layer_2">
            <g id="Layer_1-2">
                <path fill="#fff" d="M.4 4.6S2.3.4 9.5.4s9.2 4.2 9.2 4.2.3 17.9-9.1 17.9S.4 4.6.4 4.6z" transform="translate(0 .01)" />
                <path
                    d="M9.5 22.8a6.72 6.72 0 0 1-5-2.1c-2-2-3.3-5.3-4-9.9A42.05 42.05 0 0 1 0 4.6v-.2a6.09 6.09 0 0 1 2-2.2A11.72 11.72 0 0 1 9.4 0 12.29 12.29 0 0 1 17 2.2a8.33 8.33 0 0 1 2 2.2v.2a42.05 42.05 0 0 1-.5 6.2c-.7 4.6-2.1 7.9-4 9.9a6.72 6.72 0 0 1-5 2.1zM.8 4.7a40.47 40.47 0 0 0 .5 6c.5 3 1.5 7.1 3.8 9.5A5.88 5.88 0 0 0 9.5 22a6 6 0 0 0 4.4-1.9c1.3-1.3 3-4 3.8-9.4a40.47 40.47 0 0 0 .5-6 8.13 8.13 0 0 0-1.8-1.9 11.67 11.67 0 0 0-7-2C3.1.8 1.1 4.2.8 4.7z"
                    transform="translate(0 .01)"
                />
                <path fill="#f9cf3d" d="M2.4 6.2s1.5-3.3 7.1-3.3 7.2 3.3 7.2 3.3.2 13.9-7.1 13.9S2.4 6.2 2.4 6.2z" transform="translate(0 .01)" />
                <path fill="#5858e0" d="M3.7 7.2s1.2-2.7 5.7-2.7 5.8 2.7 5.8 2.7.2 11.3-5.8 11.3S3.7 7.2 3.7 7.2z" transform="translate(0 .01)" />
                <path
                    fill="#f9cf3d"
                    d="M15.1 12.2a6.82 6.82 0 0 0-5.2-2.3A7.59 7.59 0 0 0 4 12l-.7-.6a8.11 8.11 0 0 1 6.6-2.5 7.49 7.49 0 0 1 5.9 2.7zM4.5 15.9l-.7-.8a9.16 9.16 0 0 1 10.9-.3l-.6.8a7.52 7.52 0 0 0-4.8-1.4 7.81 7.81 0 0 0-4.8 1.7z"
                    transform="translate(0 .01)"
                />
            </g>
        </g>
    </symbol>
    <symbol id="ful" viewBox="0 0 16.62 22.56">
        <path fill="#fff" d="M.37 14.78V1.15L4.08.61a32 32 0 0 1 8.52 0l3.72.54v13.63L8.37 22z" />
        <path d="M8.33 22.56L0 14.94V.82l4-.54a33.61 33.61 0 0 1 8.62 0l4 .54v14.12zM.75 14.62l7.58 6.93 7.56-6.93V1.48L12.54 1a31.53 31.53 0 0 0-8.46 0l-3.33.46z" />
        <path fill="none" d="M14.25 3.73v10.13L12 15.91l-3.67 3.37-3.68-3.38-2.23-2V3.73l2.23-.3.51-.07a24 24 0 0 1 6.34 0l.51.07z" />
        <path fill="#f2f2f3" d="M12 3.43v12.48l-3.67 3.37-3.68-3.38V3.43l.51-.07a24 24 0 0 1 6.34 0z" />
        <path fill="#1e1e1e" d="M4.65 3.43V15.9l-2.23-2.04V3.73l2.23-.3zm9.59.3v10.13L12 15.91V3.43l2.24.3z" />
        <path fill="#f02e24" d="M2.42 3.67s7-1 11.86 0v1.72s-6.12 2.5-11.83 0z" />
    </symbol>
    <symbol id="cry" viewBox="0 0 22.56 22.56">
        <circle cx="11.28" cy="11.28" r="11.01" fill="#fff" />
        <path d="M11.24 22.56a11.28 11.28 0 1 1 .08 0zm0-22A10.75 10.75 0 1 0 22 11.3v-.05A10.77 10.77 0 0 0 11.24.54z" />
        <path fill="#dfcfce" d="M20.28 11.24a9 9 0 0 1-17.93.6v-.6m-.03 0a9 9 0 0 1 18 0" />
        <path fill="none" d="M20.24 11.28a9 9 0 1 1-9-9 9 9 0 0 1 9 9z" />
        <path fill="#ff0025" d="M20.24 11.28A8.9 8.9 0 0 1 18 17.22H4.57a9 9 0 0 1 0-11.87H18a8.86 8.86 0 0 1 2.24 5.93z" />
        <path
            fill="#182b99"
            d="M5.2 18.11c1-.54 2.92-5.16 4.08-5.37 2.33-.45 4.61-.47 6.52 1.28 1-1.92.78-3.77-1.15-4.74-.12-.06-.3-.23-.29-.34 0-1.27-.85-1.8-1.8-2.27a11.19 11.19 0 0 0-5-1 7.51 7.51 0 0 0-1.77.2c-3.66 1-3.34 3.8-3.47 5.37-.27 3.65 2.32 5.76 2.88 6.87zm7.27-9.34c-1 .56-1.5.43-1.94-.63z"
        />
        <path
            fill="#fff"
            d="M5.11 18.29v-.12a5.79 5.79 0 0 0-.7-1 8.18 8.18 0 0 1-2.22-5.91v-.57c.08-1.61.19-4 3.56-5a8.36 8.36 0 0 1 1.8-.22 11.41 11.41 0 0 1 5.05 1c1 .5 1.92 1 1.86 2.39a.84.84 0 0 0 .23.23A3.16 3.16 0 0 1 16.34 11a4.09 4.09 0 0 1-.46 3l-.07.14-.12-.14c-2-1.8-4.35-1.65-6.41-1.25-.6.11-1.5 1.61-2.29 2.93a8.48 8.48 0 0 1-1.77 2.43zM7.43 5.74A8.51 8.51 0 0 0 5.84 6c-3.19.93-3.29 3.16-3.36 4.77v.57A8 8 0 0 0 4.6 17a7.76 7.76 0 0 1 .67.95 11.48 11.48 0 0 0 1.57-2.27c.86-1.45 1.76-2.93 2.46-3.08 2-.39 4.47-.55 6.5 1.2a3.7 3.7 0 0 0 .4-2.8 2.87 2.87 0 0 0-1.54-1.65.65.65 0 0 1-.36-.46c0-1.18-.75-1.67-1.72-2.15a11.08 11.08 0 0 0-4.94-1zm4.08 3.48h-.27c-.32-.11-.55-.41-.79-1L10.34 8l2.49.81-.26.14a2.24 2.24 0 0 1-1 .33zm-.72-.87a1 1 0 0 0 .52.58 1.21 1.21 0 0 0 .81-.14z"
        />
    </symbol>
    <symbol id="eve" viewBox="0 0 19.46 22.54">
        <path
            fill="#fff"
            d="M9.74 22a9.5 9.5 0 0 0-4.18-3C3.05 17.8.69 16.69.69 12.92A15.05 15.05 0 0 1 1.3 9c.55-2.22 1-4.14-.81-6.24L5.12.33h9.25L19 2.73c-1.83 2.1-1.36 4-.8 6.24a15.62 15.62 0 0 1 .61 3.9c0 3.77-2.36 4.87-4.87 6.06A9.5 9.5 0 0 0 9.74 22z"
            transform="translate(0 .02)"
        />
        <path
            d="M9.74 22.52l-.28-.42c-.9-1.43-2.5-2.18-4-2.92C2.93 18 .37 16.81.37 12.85a15.94 15.94 0 0 1 .61-4c.57-2.23 1-4-.72-6L0 2.54 5 0h9.42l5 2.61-.26.29c-1.69 2-1.29 3.75-.72 6a16.94 16.94 0 0 1 .63 4c0 4-2.58 5.17-5.06 6.34-1.51.76-3.12 1.46-4.01 2.9zM1 2.81C2.62 4.92 2.13 6.92 1.6 9a15 15 0 0 0-.6 3.85c0 3.57 2.17 4.6 4.69 5.78a10.26 10.26 0 0 1 4.07 2.8 10.23 10.23 0 0 1 4.06-2.77c2.52-1.21 4.71-2.24 4.71-5.84A15.14 15.14 0 0 0 17.92 9c-.53-2.11-1-4.11.61-6.22L14.29.61h-9.1z"
            transform="translate(0 .02)"
        />
        <path
            fill="#5b6ac4"
            d="M9.74 19.27A6.87 6.87 0 0 0 6.64 17c-1.95-.89-3.71-1.73-3.71-4.56a12 12 0 0 1 .45-2.94c.42-1.68.78-3.12-.6-4.71L6.26 3h7l3.49 1.8c-1.38 1.59-1 3-.6 4.71a12 12 0 0 1 .45 2.92c0 2.83-1.78 3.67-3.67 4.56a7 7 0 0 0-3.19 2.28z"
            transform="translate(0 .02)"
        />
        <path
            fill="none"
            d="M16.11 9.49a12 12 0 0 1 .45 2.92v.14a5.55 5.55 0 0 1-.09 1 4 4 0 0 1-.35 1 4.79 4.79 0 0 1-2.24 2l-1 .47a5.78 5.78 0 0 0-.72.31 7.13 7.13 0 0 0-2.43 2A7 7 0 0 0 6.64 17c-1.95-.89-3.71-1.73-3.71-4.56a12 12 0 0 1 .45-2.94c.07-.29.14-.56.2-.82a7.06 7.06 0 0 0 .15-.92 3.79 3.79 0 0 0-.13-1.57 3.89 3.89 0 0 0-.82-1.4l2.37-1.23L6 3.1l.26-.1h7l3.49 1.8c-1.42 1.57-1.01 3.01-.64 4.69z"
            transform="translate(0 .02)"
        />
        <path
            fill="#fff"
            d="M16.11 14.51a4.79 4.79 0 0 1-2.24 2L3.6 6.2a3.89 3.89 0 0 0-.82-1.4l2.37-1.24zM12.92 17a5.78 5.78 0 0 0-.72.31L3.58 8.69a7.06 7.06 0 0 0 .15-.92zm3.63-4.45a5.55 5.55 0 0 1-.09 1L6 3.1l.26-.1H7z"
            transform="translate(0 .02)"
        />
    </symbol>
    <symbol id="mun" viewBox="0 0 16.74 22.72">
        <g id="Layer_2">
            <g id="Layer_1-2">
                <path fill="#fff" d="M.28 14.94V1.08L4 .57a32.2 32.2 0 0 1 8.66 0l3.76.51v13.86l-8.09 7.4z" />
                <path d="M8.37 22.72L0 15.06V.83l4-.54a32.79 32.79 0 0 1 8.74 0l4 .54v14.23l-.09.08zm-7.81-7.9L8.37 22l7.81-7.15V1.32L12.66.84a32.43 32.43 0 0 0-8.58 0l-3.52.48z" />
                <path fill="#d83231" d="M2 13.69V2.78l3-.4a26 26 0 0 1 6.82 0l3 .4v10.91l-6.45 5.82z" />
                <path fill="#fbf500" d="M3.91 12.83V5.2L6 4.92a17.25 17.25 0 0 1 4.76 0l2.07.28v7.63l-4.46 4.08z" />
                <path fill="#d83231" d="M6.62 8.58l1.75 2.95 1.75-2.95-1.15-.88-.6.67-.67-.67-1.08.88z" />
            </g>
        </g>
    </symbol>
    <symbol id="liv" viewBox="0 0 18.47 22.54">
        <g id="Layer_2">
            <g id="Layer_1-2">
                <path fill="#fff" d="M.24.79v14.89S5.77 22.3 9 22.3s8.81-6.71 8.81-6.71l.4-14.8S14.54 6.15 9 .79c0 0-4.41 5.9-8.76 0z" />
                <path
                    d="M9 22.54c-3.34 0-8.76-6.44-9-6.71V.07l.43.58C1.66 2.32 3 3.17 4.44 3.17 6.89 3.18 8.79.67 8.81.65L9 .43l.19.19c1.75 1.69 3.47 2.46 5.13 2.29A5.74 5.74 0 0 0 18 .66l.47-.66-.39 15.67v.07c-.28.26-5.7 6.8-9.08 6.8zM.47 15.59c.59.68 5.62 6.48 8.57 6.48s8-5.9 8.57-6.57l.39-14a5.86 5.86 0 0 1-3.62 1.91Q11.71 3.64 9 1.14c-.53.64-2.3 2.51-4.57 2.51a5.23 5.23 0 0 1-4-2.18z"
                />
                <path fill="#f43738" d="M1.3 3.05v12.24s4.9 5.45 7.8 5.45 7.8-5.52 7.8-5.52l.32-12.17s-3.25 4.4-8.16 0c0 0-3.9 4.85-7.76 0z" />
                <path
                    fill="#f8eded"
                    d="M3.07 7.44L11.83 17a.32.32 0 0 1 0 .39 3.64 3.64 0 0 1-2.68 1.49c-1.74 0-6.51-4.23-6.51-4.87V7.64c.02-.25.27-.37.43-.2zM5.86 7h9.58a.27.27 0 0 1 .24.28V13a6.4 6.4 0 0 1-1.89 2.39.22.22 0 0 1-.3 0L5.7 7.48a.3.3 0 0 1 0-.41.24.24 0 0 1 .16-.07z"
                />
            </g>
        </g>
    </symbol>
    <symbol id="lei" viewBox="0 0 22.68 22.68">
        <g id="Layer_2">
            <g id="Layer_1-2">
                <circle cx="11.34" cy="11.34" r="11" fill="#fff" />
                <path d="M11.34 22.68a11.34 11.34 0 1 1 11.34-11.34 11.34 11.34 0 0 1-11.34 11.34zm0-22A10.65 10.65 0 1 0 22 11.34 10.65 10.65 0 0 0 11.34.68z" />
                <circle cx="11.34" cy="11.34" r="8.07" fill="#2221f8" />
                <path fill="#fff" d="M11.27 17.61a6.34 6.34 0 1 1 6.34-6.34 6.35 6.35 0 0 1-6.34 6.34zm0-12.17a5.83 5.83 0 1 0 5.83 5.83 5.84 5.84 0 0 0-5.83-5.83z" />
                <path fill="#fff" d="M14 12.62c-.76 0-2.45-.67-2.45-1.49S13.21 9.64 14 9.64a2 2 0 0 1 1.73 1.1c0 .13-.36.25-.36.39s.4.27.37.39a1.93 1.93 0 0 1-1.74 1.1z" />
                <path
                    fill="#2221f8"
                    d="M14 12.7c-.76 0-2.53-.66-2.53-1.57S13.21 9.56 14 9.56a2 2 0 0 1 1.81 1.16.36.36 0 0 1-.21.28c-.12.07-.14.1-.15.13s.11.09.16.13.24.17.21.28A2 2 0 0 1 14 12.7zm0-3c-.76 0-2.36.66-2.36 1.4s1.6 1.4 2.36 1.4a1.81 1.81 0 0 0 1.65-1l-.14-.11c-.12-.08-.23-.16-.23-.27s.12-.19.23-.27l.14-.11a1.9 1.9 0 0 0-1.65-1z"
                />
                <path fill="#fff" d="M8.12 9.85c.76-.06 2.49.46 2.56 1.28s-1.56 1.62-2.31 1.68a2 2 0 0 1-1.82-.94c0-.13.34-.28.33-.42s-.42-.24-.4-.36c.1-.65 1.01-1.18 1.64-1.24z" />
                <path
                    fill="#2221f8"
                    d="M8.25 12.9a2 2 0 0 1-1.78-1 .4.4 0 0 1 .19-.31.93.93 0 0 0 .14-.14l-.17-.11c-.12-.07-.26-.15-.24-.27.11-.71 1.1-1.25 1.73-1.3a3.67 3.67 0 0 1 1.57.31c.66.28 1 .65 1.08 1s-.29.83-.89 1.21a3.66 3.66 0 0 1-1.5.57zm-1.61-1.05a1.89 1.89 0 0 0 1.72.88 3.67 3.67 0 0 0 1.43-.55c.54-.34.83-.72.81-1s-.38-.65-1-.9A3.67 3.67 0 0 0 8.1 10a1.87 1.87 0 0 0-1.57 1.15l.16.1c.12.08.24.14.25.25s-.1.2-.21.29z"
                />
                <path fill="#fff" d="M8.59 13c.29-.7 1.55-2 2.31-1.68s.72 2.12.43 2.82a2 2 0 0 1-1.67 1.18c-.14 0-.09-.43-.23-.49s-.4.27-.5.2A1.93 1.93 0 0 1 8.59 13z" />
                <path
                    fill="#2221f8"
                    d="M9.76 15.42h-.11c-.13 0-.16-.17-.19-.31s0-.17-.06-.19a.59.59 0 0 0-.17.1c-.13.08-.25.16-.35.09A2 2 0 0 1 8.51 13a3.73 3.73 0 0 1 1-1.26c.54-.46 1.05-.63 1.41-.47s.6.63.66 1.34a4 4 0 0 1-.18 1.6 2.13 2.13 0 0 1-1.64 1.21zm-.08-.17a1.88 1.88 0 0 0 1.57-1.13 3.57 3.57 0 0 0 .17-1.52c-.05-.63-.25-1.07-.55-1.2s-.75 0-1.24.45a3.83 3.83 0 0 0-1 1.19A1.82 1.82 0 0 0 9 15a.51.51 0 0 0 .16-.09c.12-.07.24-.15.34-.1s.13.18.16.31a.59.59 0 0 0 .02.13z"
                />
                <path fill="#fff" d="M13.76 9.57c-.45.61-2 1.57-2.64 1.09s-.2-2.24.25-2.85a2 2 0 0 1 1.91-.75c.12.05 0 .44.1.53s.46-.16.54-.07a1.91 1.91 0 0 1-.16 2.05z" />
                <path
                    fill="#2221f8"
                    d="M11.58 10.88a.92.92 0 0 1-.51-.15c-.73-.54-.22-2.36.23-3a2.06 2.06 0 0 1 2-.78c.12 0 .11.21.11.34v.2h.19c.14 0 .28-.1.36 0a2 2 0 0 1-.15 2.15 3.63 3.63 0 0 1-2.23 1.24zm1.35-3.79a2.12 2.12 0 0 0-1.49.77c-.45.61-.86 2.29-.27 2.73s2.08-.46 2.52-1.07a1.84 1.84 0 0 0 .17-1.94h-.18c-.14 0-.26.09-.35 0a.39.39 0 0 1-.08-.34.54.54 0 0 0 0-.18.85.85 0 0 0-.32.03z"
                />
                <path fill="#fff" d="M11.28 14.38c-.39-.64-.71-2.43 0-2.86s2.15.66 2.55 1.3a2 2 0 0 1 0 2c-.09.1-.4-.18-.52-.1s0 .49-.14.52a1.9 1.9 0 0 1-1.89-.86z" />
                <path
                    fill="#2221f8"
                    d="M12.85 15.42a2.25 2.25 0 0 1-1.64-1 3.67 3.67 0 0 1-.43-1.55c0-.71.1-1.22.44-1.43s.86-.12 1.48.25a3.7 3.7 0 0 1 1.18 1.08 2 2 0 0 1 0 2.15c-.09.1-.23 0-.35 0s-.16-.07-.19-.06a.67.67 0 0 0 0 .2c0 .15 0 .3-.14.34a1 1 0 0 1-.35.02zm-1.21-3.91a.63.63 0 0 0-.33.09c-.28.17-.41.63-.36 1.27a3.64 3.64 0 0 0 .41 1.47 1.83 1.83 0 0 0 1.73.88.61.61 0 0 0 0-.19c0-.14 0-.28.11-.33a.47.47 0 0 1 .35.05.44.44 0 0 0 .16.06 1.88 1.88 0 0 0 0-1.94 3.61 3.61 0 0 0-1.13-1 2 2 0 0 0-.94-.36z"
                />
                <path fill="#fff" d="M11 7.9c.38.66.65 2.45 0 2.86s-2.24-.71-2.62-1.36a2 2 0 0 1 .07-2.05c.1-.09.4.19.53.12S9 7 9.13 7a1.92 1.92 0 0 1 1.87.9z" />
                <path
                    fill="#2221f8"
                    d="M10.54 10.94a3.45 3.45 0 0 1-2.23-1.5 2 2 0 0 1 .08-2.15c.09-.09.23 0 .36 0l.18.07a.67.67 0 0 0 0-.2c0-.15 0-.3.14-.33a2 2 0 0 1 1.92 1 3.88 3.88 0 0 1 .4 1.56c0 .71-.14 1.22-.48 1.42a.82.82 0 0 1-.37.13zm-2-3.52a1.88 1.88 0 0 0 0 1.94c.38.65 1.76 1.7 2.39 1.33.28-.16.43-.62.4-1.26A3.8 3.8 0 0 0 10.88 8a1.85 1.85 0 0 0-1.72-1 .54.54 0 0 0 0 .18c0 .14 0 .28-.12.33a.43.43 0 0 1-.35-.06h-.18z"
                />
                <path fill="#fbf100" d="M11.19 12a.82.82 0 1 1-.19-1.63h.18a.81.81 0 0 1 .81.81.82.82 0 0 1-.8.82z" />
            </g>
        </g>
    </symbol>
    <symbol id="mci" viewBox="0 0 19.14 22.56">
        <path fill="#fff" d="M16.46 3.71a13.13 13.13 0 0 0-2.4-2.19A7.75 7.75 0 0 0 9.62.29a8.9 8.9 0 0 0-3.27.6c-1.81.55-3.67 2.82-3.67 2.82H.29v11.38c0 6.67 9.28 7.18 9.28 7.18s9.28-.51 9.28-7.18V3.71z" />
        <path
            d="M9.57 22.56a16.07 16.07 0 0 1-4.73-1.11C1.69 20.14 0 17.94 0 15.09V3.42h2.55A10.16 10.16 0 0 1 6.29.61 9.22 9.22 0 0 1 9.62 0a8.08 8.08 0 0 1 4.61 1.28 12.62 12.62 0 0 1 2.36 2.14h2.55v11.67c0 2.85-1.66 5.05-4.82 6.36a16.06 16.06 0 0 1-4.74 1.11zM.58 4v11.09c0 2.65 1.5 4.62 4.45 5.82A16.11 16.11 0 0 0 9.57 22a16.24 16.24 0 0 0 4.55-1.08c3-1.23 4.44-3.19 4.44-5.82V4h-2.27A12.51 12.51 0 0 0 14 1.86 7.33 7.33 0 0 0 9.62.59a8.34 8.34 0 0 0-3.16.57C4.74 1.68 3 3.88 2.87 4H.58z"
        />
        <path fill="none" d="M15.21 5.06a10.69 10.69 0 0 0-2-1.8 6.4 6.4 0 0 0-3.66-1 7.15 7.15 0 0 0-2.71.49 8 8 0 0 0-3 2.3h-2v9.35c0 5.49 7.63 5.91 7.63 5.91s7.63-.42 7.63-5.91V5.06z" />
        <path fill="#9ad8fd" d="M17.19 8.14V5.06h-2a10.69 10.69 0 0 0-2-1.8 6.48 6.48 0 0 0-3.66-1 7.35 7.35 0 0 0-2.71.49 8.35 8.35 0 0 0-3 2.3h-2v3.09z" />
        <path fill="none" d="M17.2 14.84a4.92 4.92 0 0 1-2.31 3.78A9.52 9.52 0 0 1 11.53 20a16 16 0 0 1-1.94.3 13.7 13.7 0 0 1-2-.34 10.62 10.62 0 0 1-3.36-1.43A4.86 4.86 0 0 1 2 14.83V9.36h15.19z" />
        <path fill="#9ad8fd" d="M4.22 9.38v9.17A4.86 4.86 0 0 1 2 14.85V9.38zm12.98 5.46a4.92 4.92 0 0 1-2.31 3.78V9.38h2.3zm-5.67-5.46V20a16 16 0 0 1-1.94.3 13.7 13.7 0 0 1-2-.34V9.38z" />
        <path fill="#f0f0f0" d="M7.58 9.38V20a10.62 10.62 0 0 1-3.36-1.43V9.38zm7.31 0v9.24A9.52 9.52 0 0 1 11.53 20V9.38z" />
    </symbol>
    <symbol id="sou" viewBox="0 0 17.85 22.16">
        <g id="Layer_2">
            <g id="Layer_1-2">
                <path fill="#fff" d="M.31 16.74V.31h17.23v16.43L8.92 21.8.31 16.74z" />
                <path d="M8.92 22.16L0 16.91V0h17.85v16.91zm-8.3-5.6l8.3 4.89 8.31-4.89V.62H.62z" />
                <path fill="#eef3f3" d="M15.97 9.19V2.13H1.88v3.53l14.09 3.53z" />
                <path fill="#df1200" d="M1.88 10.14v5.35l7.04 4.33 7.05-4.23v-2.35l-14.09-3.1z" />
                <path fill="#46d1e8" d="M1.88 7.33l14.09 3.19v1.84L1.88 9.07V7.33z" />
                <path d="M1.88 4.44l14.09 3.19v1.84L1.88 6.18V4.44z" />
            </g>
        </g>
    </symbol>
    <symbol id="new" viewBox="0 0 18.46 22.56">
        <defs>
            <linearGradient id="linear-gradient" x1="5.78" x2="5.78" y1="19.47" y2="5.8" gradientTransform="matrix(1 0 0 -1 -2.05 24)" gradientUnits="userSpaceOnUse">
                <stop offset="0" stop-color="#92e7f6" />
                <stop offset="1" stop-color="#42c4e6" />
            </linearGradient>
            <linearGradient id="linear-gradient-2" x1="16.99" x2="16.99" y1="19.8" y2="6.41" xlink:href="#linear-gradient" />
        </defs>
        <path fill="#fff" d="M.19.79v14.9S5.73 22.32 9 22.32s8.81-6.72 8.81-6.72L18.17.79S14.5 6.15 9 .79c0 0-4.45 5.9-8.81 0z" />
        <path
            d="M9 22.56c-3.34 0-8.76-6.45-9-6.72V.07l.38.58C1.62 2.32 3 3.18 4.39 3.18c2.46 0 4.35-2.5 4.37-2.53L9 .43l.19.19c1.74 1.68 3.47 2.45 5.14 2.29A5.69 5.69 0 0 0 18 .66l.46-.66-.41 15.68-.05.07c-.24.25-5.66 6.81-9 6.81zm-8.58-7C1 16.25 6.05 22 9 22s8-5.9 8.57-6.57l.35-14a5.86 5.86 0 0 1-3.57 1.91c-1.74.18-3.53-.57-5.32-2.24-.54.64-2.3 2.51-4.58 2.51a5.23 5.23 0 0 1-4-2.18z"
        />
        <path
            fill="none"
            d="M16.89 3l-.31 12.2s-.36.42-.94 1c-.38.39-.84.86-1.37 1.34a15.81 15.81 0 0 1-3.77 2.77 3.5 3.5 0 0 1-1.45.37 3.2 3.2 0 0 1-1.22-.28 12.77 12.77 0 0 1-3.41-2.2 15.82 15.82 0 0 1-1.37-1.29c-.94-.91-1.57-1.63-1.57-1.63V3a6.34 6.34 0 0 0 1.57 1.53 3.62 3.62 0 0 0 1.37.58 4.27 4.27 0 0 0 3.39-1A6.3 6.3 0 0 0 9 3a7.85 7.85 0 0 0 1.49 1.14 4.66 4.66 0 0 0 3.77.67 4.14 4.14 0 0 0 1.37-.62A5.5 5.5 0 0 0 16.89 3z"
        />
        <path
            d="M3.05 4.53v12.38c-.94-.91-1.57-1.63-1.57-1.63V3a6.34 6.34 0 0 0 1.57 1.53zm7.43-.37v16.2a3.5 3.5 0 0 1-1.48.37 3.2 3.2 0 0 1-1.22-.28V4.15A6.21 6.21 0 0 0 9 3a8.22 8.22 0 0 0 1.48 1.16zM16.89 3v11.86s-.67.76-1.25 1.37v-12A5.61 5.61 0 0 0 16.89 3z"
        />
        <path fill="url(#linear-gradient)" d="M4.42 5.11V18.2a15.82 15.82 0 0 1-1.37-1.29V4.53a3.62 3.62 0 0 0 1.37.58z" />
        <path fill="url(#linear-gradient-2)" d="M15.63 4.2v12c-.38.39-.84.86-1.37 1.34V4.83a4.37 4.37 0 0 0 1.37-.63z" />
        <path fill="#bababa" d="M7.81 4.15v16.3a12.6 12.6 0 0 1-3.39-2.25V5.11a4.29 4.29 0 0 0 3.39-.96zm6.45.67v12.76a15.81 15.81 0 0 1-3.77 2.77V4.16a4.66 4.66 0 0 0 3.77.67z" />
    </symbol>
    <symbol id="suf" viewBox="0 0 22.62 22.61">
        <path
            d="M21.34 5.92A11.45 11.45 0 0 0 17 1.54a11 11 0 0 0-2.87-1.2A11.06 11.06 0 0 0 11.39 0a11.46 11.46 0 0 0-2.92.37A10.91 10.91 0 0 0 5.71 1.5a11.32 11.32 0 0 0-3.33 2.91 11.3 11.3 0 0 0-1 1.48 11.39 11.39 0 0 0 0 10.84 11.42 11.42 0 0 0 4.29 4.38 10.9 10.9 0 0 0 2.74 1.12 11.23 11.23 0 0 0 2.89.37 11.27 11.27 0 0 0 2.78-.22A11 11 0 0 0 17 21.21a11.34 11.34 0 0 0 4.3-4.39 11.25 11.25 0 0 0 1.38-5.41 11.27 11.27 0 0 0-1.34-5.49zM17 20.45a10.44 10.44 0 0 1-2.87 1.24 10.62 10.62 0 0 1-5.63 0 10.53 10.53 0 0 1-2.74-1.22 10.69 10.69 0 0 1-4.29-5.14 10.71 10.71 0 0 1 0-7.72 10.83 10.83 0 0 1 4.3-5.15 10.56 10.56 0 0 1 2.68-1.38 10.45 10.45 0 0 1 2.89-.4 10.59 10.59 0 0 1 2.74.32A10.47 10.47 0 0 1 17 2.26a10.53 10.53 0 0 1 4.3 5.17 10.41 10.41 0 0 1 .83 3.93 10.78 10.78 0 0 1-.73 3.89v.05a10.85 10.85 0 0 1-4.4 5.15z"
            transform="translate(-.01)"
        />
        <path
            fill="none"
            d="M21.34 11.36V12a10 10 0 0 1-3.93 7.31l-.27.2-.1.07-.18.12a9.84 9.84 0 0 1-2.43 1.15l-.26.08-.26.07a10.16 10.16 0 0 1-4.84 0l-.3-.08-.23-.07h-.12A10.26 10.26 0 0 1 6 19.78l-.29-.19-.27-.2a10 10 0 0 1-4-7.38v-1.28a10 10 0 0 1 4-7.38l.27-.2L6 3a9.92 9.92 0 0 1 2.42-1.18h.05l.23-.07.3-.08a10.16 10.16 0 0 1 4.84 0l.26.07.27.08A10.18 10.18 0 0 1 16.79 3l.18.11.1.07.27.2a10 10 0 0 1 3.93 7.31 2.88 2.88 0 0 1 .07.67z"
            transform="translate(-.01)"
        />
        <path fill="#bf0000" d="M5.42 3.34a10 10 0 0 0-4 7.38V12a10 10 0 0 0 4 7.38l.27.2V3.14zm-4 2.55l1-1.48a11.44 11.44 0 0 0-1 1.48z" transform="translate(-.01)" />
        <path
            d="M1.4 5.89l1-1.48a11.3 11.3 0 0 0-1 1.48zm0 0l1-1.48a11.3 11.3 0 0 0-1 1.48zm0 0l1-1.48a11.3 11.3 0 0 0-1 1.48zm0 0l1-1.48a11.3 11.3 0 0 0-1 1.48zm0 0l1-1.48a11.3 11.3 0 0 0-1 1.48zm0 0l1-1.48a11.3 11.3 0 0 0-1 1.48zm0 0l1-1.48a11.3 11.3 0 0 0-1 1.48z"
            transform="translate(-.01)"
        />
        <path
            fill="#bf0000"
            d="M21.32 10.72V12a10 10 0 0 1-3.93 7.31l-.27.2-.1.07V3.14l.1.07.27.2a10 10 0 0 1 3.93 7.31zm-7.48-9.03a10.16 10.16 0 0 0-4.84 0l-.3.08-.23.07v19.1l.23.06.3.08a10.16 10.16 0 0 0 4.84 0l.26-.08V1.76z"
            transform="translate(-.01)"
        />
    </symbol>
    <symbol id="tot" viewBox="0 0 22.76 22.76">
        <defs>
            <linearGradient id="linear-gradient" x1="3.46" x2="16.19" y1="20.55" y2="7.82" gradientTransform="matrix(1 0 0 -1 .1 24.1)" gradientUnits="userSpaceOnUse">
                <stop offset=".21" stop-color="#f9fffb" />
                <stop offset=".75" stop-color="#d4e3db" />
            </linearGradient>
        </defs>
        <circle cx="11.38" cy="11.38" r="11.08" fill="#fff" />
        <path d="M11.38 22.76a11.38 11.38 0 1 1 11.38-11.38 11.4 11.4 0 0 1-11.38 11.38zm0-22.16a10.78 10.78 0 1 0 10.77 10.79A10.8 10.8 0 0 0 11.38.6z" />
        <path
            fill="url(#linear-gradient)"
            d="M20.39 11.38a9 9 0 0 1-9 9 8.87 8.87 0 0 1-2.29-.28 8.35 8.35 0 0 1-2.29-1l-.31-.19a9.48 9.48 0 0 1-1.75-1.47c0-.06-.1-.13-.16-.19a9 9 0 0 1-1.78-3.15 6.46 6.46 0 0 1-.24-.86 9.7 9.7 0 0 1-.19-1.86 9 9 0 0 1 9-9 9.7 9.7 0 0 1 1.86.19 6.42 6.42 0 0 1 .86.23 8.93 8.93 0 0 1 3.15 1.77l.19.16a9.48 9.48 0 0 1 1.47 1.75c.06.1.13.2.19.31a8.47 8.47 0 0 1 1 2.31 8.75 8.75 0 0 1 .29 2.28z"
        />
        <circle cx="11.38" cy="11.38" r="9.01" fill="#d4e3db" />
        <path fill="#8287c9" d="M14.1 2.8L2.8 14.1a6.46 6.46 0 0 1-.24-.86L13.24 2.56a6.46 6.46 0 0 1 .86.24z" />
        <path fill="#4e4e4e" d="M17.29 4.58L4.58 17.29a9 9 0 0 1-1.77-3.19L14.1 2.81a9 9 0 0 1 3.19 1.77z" />
        <path fill="#323886" d="M19 6.49L6.49 19a9.48 9.48 0 0 1-1.75-1.47L17.48 4.74A9.48 9.48 0 0 1 19 6.49z" />
        <path fill="#363dcc" d="M20.1 9.1l-11 11a8.35 8.35 0 0 1-2.29-1L19.1 6.81a8.35 8.35 0 0 1 1 2.29z" />
    </symbol>
    <symbol id="whu" viewBox="0 0 17.8 22.4">
        <g id="Layer_1-2">
            <path fill="#fff" d="M17.5.3v12.1a7.12 7.12 0 0 1-3.3 5.8c-4 2.2-5.4 2.5-5.4 4.2 0-1.7-1.4-2-5.4-4.2C.1 16.4.1 12.4.1 12.4V.3z" />
            <path
                d="M9.2 22.3h-.6c0-1.1-.6-1.5-3-2.8-.6-.3-1.3-.7-2.2-1.2a7 7 0 0 1-3.4-6V0h17.8v12.4a7.09 7.09 0 0 1-3.4 6l-2.2 1.2c-2.4 1.2-3 1.6-3 2.7zM.6.6v11.8s0 3.8 3.1 5.5c.8.5 1.5.8 2.2 1.2 1.7.9 2.6 1.4 3.1 2.1.4-.8 1.4-1.3 3-2.1.6-.3 1.3-.7 2.2-1.2 3.1-1.7 3.1-5.5 3.1-5.5V.6z"
            />
            <path fill="#57acd4" d="M15.7 2.7v9.5a5.38 5.38 0 0 1-2.6 4.5C10 18.4 8.9 18.6 8.9 20c0-1.4-1.1-1.6-4.2-3.3a5.62 5.62 0 0 1-2.6-4.5V2.7z" />
            <path fill="#720039" d="M3.1 8.9V12a4.5 4.5 0 0 0 2.2 3.8c2.7 1.5 3.6 1.7 3.6 2.8 0-1.1.9-1.3 3.6-2.8a4.67 4.67 0 0 0 2.2-3.9v-3z" />
            <path fill="#fadb73" d="M3.1 3.9h11.5V8H3.1z" />
        </g>
    </symbol>
    <symbol id="wba" viewBox="0 0 20.2 22.8">
        <path fill="#fff" d="M10.1 22.5c-2.2 0-5.3-2.7-8.9-5.6-.3-.4-.6-.7-.9-1.1V.3h19.6v15.4l-.9 1.2c-4.2 3.4-6.7 5.6-8.9 5.6z" />
        <path
            d="M10.1 22.8c-2.2 0-5.1-2.4-8.4-5.1l-.7-.6a10.59 10.59 0 0 1-1-1.2V0h20.2v15.8l-.1.1a10.59 10.59 0 0 1-1 1.2l-1.3 1.1c-3.4 2.9-5.6 4.6-7.7 4.6zM.7 15.6a3.92 3.92 0 0 0 .8 1l.7.6c3.2 2.7 6 5 8 5s4-1.8 7.3-4.5l1.3-1.1a3.92 3.92 0 0 0 .8-1V.7H.7z"
        />
        <path fill="#d15241" d="M2.2 1.8h15.9v4.6H2.2z" />
        <path fill="#336" d="M7 7.3v11.5c-1-.7-2.1-1.7-3.3-2.6a.77.77 0 0 0-.2-.3V7.3zm9.7 0v8.6l-.2.2c-1.3 1-2.4 1.9-3.3 2.6V7.3z" />
        <path fill="#336" d="M3.5 7.3V16c0 .1.1.1.2.2C4.9 17 6 18 7 18.7V7.3zm8.4 0v12.4a4.06 4.06 0 0 1-1.7.5 3.19 3.19 0 0 1-1.7-.6V7.3zm4.8 0v8.6l-.2.2c-1.3 1-2.4 1.9-3.3 2.6V7.3z" />
    </symbol>
    <symbol id="wlv" viewBox="0 0 22.6 22.6">
        <path fill="#fff" d="M11.3.3a11 11 0 1 0 11 11 11 11 0 0 0-11-11zm6 2.8l-.1.2-.1.1.1-.1h-.1z" />
        <path d="M11.3 0a11.3 11.3 0 1 0 11.3 11.3A11.35 11.35 0 0 0 11.3 0zm0 21.9a10.65 10.65 0 0 1 0-21.3 10.63 10.63 0 0 1 10.6 10.66A10.54 10.54 0 0 1 11.42 21.9z" />
        <path
            fill="none"
            d="M21.1 11.3a9.9 9.9 0 0 1-19.8 0 9.2 9.2 0 0 1 .4-2.9c.3-.6.6-1.2.8-1.7A7.82 7.82 0 0 1 4 4.6a9.07 9.07 0 0 1 1.4-1.3h.1c.4-.3.8-.5 1.2-.8a9.85 9.85 0 0 1 10.3.8 17.72 17.72 0 0 1 1.4 1.2 11.29 11.29 0 0 1 2.3 3.8 10.48 10.48 0 0 1 .4 3z"
        />
        <path fill="#cf4d00" d="M21.1 11.3a9.9 9.9 0 0 1-19.8 0 9.2 9.2 0 0 1 .4-2.9l.7-1.7 1.8-1.8 1.3-1.4 1-1a10.16 10.16 0 0 1 10.5.8l.1-.1h.1l-.1.1.1-.1 1.3 1.3a9.35 9.35 0 0 1 2.2 3.9 9.2 9.2 0 0 1 .4 2.9z" />
        <path fill="#f3ad36" d="M17.2 3.2l-5.9 5.9-5.6-5.5-.2-.3-.1-.1c.4-.2.8-.5 1.2-.7a10.11 10.11 0 0 1 10.6.7z" />
        <path fill="#fff" d="M18.7 4.4l-.1.1-7.3 7.3-5.2-5.1-1.8-1.8-.3-.3a9.07 9.07 0 0 1 1.4-1.3l5.9 5.9 5.8-5.8.1-.1.1-.1.1-.1z" />
        <path d="M1.9 8.4l9.4 9.4 9.4-9.4a9.69 9.69 0 0 0-2.2-3.8l-7.2 7.3-6.9-7-.4-.3a7.82 7.82 0 0 0-1.5 2.1z" />
    </symbol>
</svg>
