<svg xmlns="http://www.w3.org/2000/svg" width="512" height="512" viewBox="0 0 512 512.002"><path xmlns="http://www.w3.org/2000/svg" d="M483.656 56.543l-.554-1.246c-.012-.02-.032-.043-.043-.063-.965-2.12-2.293-4.023-3.829-5.793-.316-.37-.605-.75-.945-1.101-1.543-1.606-3.336-3.055-5.375-4.352-.379-.238-.789-.453-1.191-.68-.844-.484-1.63-1.007-2.543-1.449l-.102.227c-34.066-16.18-112.375 6.39-152.12 19.777-2.79-1.285-5.56-2.593-8.38-3.855C219.45 17.824 79.554-25.75 59.527 18.718l-.02.052c0 .011-.01.023-.01.023l-.524 1.172C31.699 80.492 30.937 149.05 54.824 209.496c-5.699 6.578-9.98 12.793-12.851 18.649C14.223 238.89 0 252.075 0 267.44v1.36c0 134.097 109.102 243.203 243.191 243.203 134.102 0 243.204-109.102 243.204-243.203v-1.36c0-3.84-1.008-7.578-2.82-11.218 28.19-62.82 28.89-135.75.081-199.68zM304.203 311.352c-19.66 1.32-40.16 2.02-60.988 2.02a985.09 985.09 0 01-20.164-.22c-1.586-.03-3.13-.101-4.703-.132a897.396 897.396 0 01-15.368-.504c-1.656-.075-3.292-.164-4.937-.246a871.11 871.11 0 01-14.625-.813c-1.75-.113-3.469-.25-5.207-.371-4.61-.332-9.18-.68-13.688-1.082-1.906-.164-3.789-.348-5.66-.524a895.879 895.879 0 01-12.36-1.273 665.32 665.32 0 01-17.148-2.152 602.22 602.22 0 01-6.894-.98 554.115 554.115 0 01-9.738-1.563c-2.254-.383-4.528-.742-6.739-1.145a453.13 453.13 0 01-9.191-1.781c-1.738-.348-3.531-.688-5.227-1.059a223.13 223.13 0 01-9.746-12.453c-1.093-1.504-2.07-3.078-3.129-4.601-1.957-2.82-3.921-5.641-5.73-8.543-.156-.246-.29-.504-.445-.75 9.425 1.02 20.398.75 32.41-.535l.523.187 2.39-.281c42.895-5.063 101.044-22.59 161.845-48.453 6.527-2.758 12.93-5.516 19.039-8.262a820.434 820.434 0 0015.21-7.063c3.399-1.605 6.754-3.218 10.11-4.847l.059.02 3.996-1.954c1.687-.836 3.332-1.68 5.011-2.523a856.534 856.534 0 007.09-3.563 1024.83 1024.83 0 0011.742-6.101c1.649-.875 3.325-1.73 4.961-2.602a797.384 797.384 0 0016.528-9.101c.425-.235.824-.48 1.258-.72a727.834 727.834 0 0014.468-8.437c1.442-.855 2.828-1.718 4.25-2.586a723.574 723.574 0 0010.778-6.668c1.582-1.007 3.156-2.007 4.71-3.015a515.552 515.552 0 009.872-6.524c1.39-.937 2.808-1.87 4.168-2.808 4.425-3.047 8.738-6.082 12.843-9.098l11.848-8.726-.465-.31c16.067-12.733 29.344-25.42 37.793-37.413.031.113.082.219.113.332.215.71.38 1.441.586 2.152 1.059 3.672 2.059 7.36 2.922 11.063.352 1.504.637 3.027.957 4.527.63 2.945 1.223 5.875 1.73 8.832.298 1.719.536 3.457.782 5.188.398 2.777.77 5.554 1.066 8.343.196 1.793.364 3.582.508 5.375.223 2.758.399 5.516.524 8.286.082 1.777.164 3.558.207 5.34.058 2.84.039 5.68 0 8.523-.032 1.683-.032 3.363-.094 5.043-.125 3.168-.352 6.328-.606 9.476-.113 1.328-.164 2.668-.3 3.996a216.073 216.073 0 01-1.73 13.418c-.071.454-.184.907-.255 1.36a224.784 224.784 0 01-2.316 11.91c-.332 1.46-.719 2.902-1.082 4.363-.719 2.934-1.45 5.856-2.293 8.766-.484 1.68-1.02 3.336-1.543 5.004a223.07 223.07 0 01-2.637 7.957 186.07 186.07 0 01-1.914 5.144 223.911 223.911 0 01-3.098 7.657 300.417 300.417 0 01-2.19 5.023c-.743 1.625-1.556 3.223-2.33 4.824a227.236 227.236 0 01-7.284 13.781c-.348.61-.68 1.215-1.028 1.825-.164.277-.32.566-.484.843-2.976 5.043-6.082 9.95-9.379 14.633-29.34 13.082-80.625 22.621-139.582 26.57zM67.73 55.195c29.805 42.352 118.438 93.54 186.22 124.075 11.183 5.042 22.456 9.777 33.714 14.347-2.5 1.153-4.855 2.305-7.41 3.457a946.904 946.904 0 01-47.816 20.016c-.215.082-.422.156-.637.238a877.19 877.19 0 01-21.399 7.914c-3.797 1.336-7.406 2.524-11.082 3.758-3.097 1.04-6.218 2.121-9.261 3.11a727.261 727.261 0 01-16.602 5.081c-.66.196-1.328.403-1.977.586-25.289 7.29-46.777 11.703-64.085 13.895-3.09-1.152-5.961-2.293-8.524-3.426-4.117-5.848-7.926-12.02-11.516-18.39-.398-.711-.804-1.41-1.203-2.122-3.582-6.523-6.925-13.265-9.91-20.242l-.176-.402C55.73 159.19 52.57 105.28 67.73 55.195zm232.395 21.57c6.125 2.758 12.074 5.63 18.05 8.47 4.91 2.335 9.81 4.683 14.614 7.081 3.461 1.72 6.844 3.47 10.242 5.207 4.715 2.418 9.426 4.825 13.996 7.286 3.727 1.996 7.317 4.023 10.95 6.043 3.984 2.21 8.039 4.425 11.886 6.648 7.328 4.238 14.48 8.512 21.305 12.8a551.926 551.926 0 01-17.691 11.786 1423.63 1423.63 0 01-3.036 1.914c-1.246.781-2.605 1.586-3.882 2.379-4.805 2.965-9.653 5.926-14.715 8.879-1.598.937-3.305 1.887-4.942 2.82a753.52 753.52 0 01-16.867 9.399c-1.687.914-3.383 1.82-5.094 2.738-.101.05-.203.113-.308.164a902.923 902.923 0 01-18.266 9.426c-1.144.574-2.285 1.14-3.437 1.718a941.756 941.756 0 01-50.535-21.027C131.066 101.332 71.887 41.391 78.289 27.18c6.422-14.203 90.504-9.582 221.836 49.586zM58.418 242.73c.145-.73.309-1.472.598-2.304.882-2.594 2.468-5.817 5.297-9.871.113.218.25.422.363.648a241.322 241.322 0 007.808 14.05c.454.75.868 1.532 1.329 2.286 1.183 1.922 2.46 3.805 3.707 5.7-10.95-.63-17.485-2.997-19.102-6.567l-.012-.012c-.277-.637-.328-1.531-.246-2.539.02-.402.164-.93.258-1.39zM460.914 60.781a12.118 12.118 0 011.934 1.278c.554.46 1.05.988 1.379 1.593.03.063.101.114.125.176 3.25 7.516-11.672 27.602-45.348 53.488a663.457 663.457 0 00-10.504-6.66c-1.219-.75-2.441-1.504-3.676-2.254-12.226-7.472-25.176-14.863-38.719-22.117-.175-.094-.347-.183-.511-.277a928.118 928.118 0 00-21.696-11.23c70.364-21.458 106.106-19.79 117.016-13.997zM38.492 251.97c.305 1.07.7 2.12 1.16 3.152h-.011c.011.02.02.05.03.07l.013.024.515 1.129c2.582 5.734 5.434 11.344 8.457 16.86 1 1.808 2.121 3.558 3.16 5.35 2.13 3.653 4.293 7.286 6.618 10.829.378.574.687 1.183 1.07 1.758-21.223-6.883-31.629-13.7-36.063-18.504-.05-.063-.125-.125-.175-.196a16.587 16.587 0 01-1.391-1.77c-.27-.425-.547-.843-.719-1.218a6.597 6.597 0 01-.25-.617c-.183-.512-.328-1.016-.328-1.41.016-2.817 4.121-8.672 17.914-15.457zm426.281 38.554c-10.949 112.59-106.14 200.895-221.57 200.895-112.992 0-206.582-84.61-220.758-193.793.649.39 1.492.738 2.172 1.121a119.86 119.86 0 006.969 3.582c1.422.668 2.89 1.328 4.414 1.985a173.224 173.224 0 009.191 3.675c1.13.422 2.282.824 3.457 1.235 4.2 1.46 8.52 2.832 12.938 4.109.422.121.824.234 1.246.36a357.836 357.836 0 0017.59 4.519l.02.02 2.757.605.543.125a488.542 488.542 0 0015.86 3.21c.03.009.074.009.101.02.074.008.137.032.207.04.164.03.34.05.504.081 1.094.208 2.254.383 3.367.579 4.54.8 9.13 1.574 13.844 2.293 1.77.27 3.602.515 5.402.773 4.282.617 8.602 1.215 13.02 1.762 1.77.215 3.582.422 5.371.629a696.56 696.56 0 0019.164 1.976c4.887.442 9.828.844 14.832 1.203a795.015 795.015 0 0020.531 1.234c1.746.094 3.477.188 5.235.259 5.238.226 10.52.402 15.84.535 1.73.05 3.44.113 5.18.156 6.945.144 13.94.234 20.991.234 89.211 0 170.34-12.113 211.723-31.605l2.398-1.121 1.551-2.153c.074-.093.133-.195.196-.296a203.017 203.017 0 005.714-8.247zm0 0" fill="#002d4c" data-original="#000000"/></svg>