<svg xmlns="http://www.w3.org/2000/svg">
    <symbol id="atb" viewBox="0 0 19.43 22.53">
        <g id="Layer_2">
            <g id="Layer_1-2">
                <path d="M19.48 0l-.05 15.08c-.11.22-2.61 5.2-9.56 7.45h-.26c-.25-.08-6.38-1.87-9.56-7.31V0z" transform="translate(-.05)" />
                <path fill="#242424" d="M1.2 1.11l16.98 11.52V1.11H1.2z" />
                <path fill="#f6fbec" d="M3.31 16.63V2.51l-2.06-1.4V14a20 20 0 0 0 2.06 2.63z" transform="translate(-.05)" />
                <path fill="#fe0200" d="M3.31 16.63s2 1.81 2.23 1.95V4L3.31 2.51z" transform="translate(-.05)" />
                <path fill="#f6fbec" d="M8.53 20.49a33.92 33.92 0 0 1-3-1.69V4l3 2.06z" transform="translate(-.05)" />
                <path fill="#fe0200" d="M11 7.72L8.53 6.05v14.19a10.85 10.85 0 0 0 1.23.53 6.17 6.17 0 0 0 1.24-.53z" transform="translate(-.05)" />
                <path fill="#f6fbec" d="M13.88 9.72l-2.88-2v12.77a29.79 29.79 0 0 0 2.88-1.7z" transform="translate(-.05)" />
                <path fill="#fe0200" d="M16.23 11.32l-2.35-1.64v9.18s1.51-1.18 2.35-2z" transform="translate(-.05)" />
                <path fill="#f6fbec" d="M18.23 12.63l-2-1.36v5.36a15.68 15.68 0 0 0 2-2.15z" transform="translate(-.05)" />
                <path fill="#fff" d="M9.75 21.59h-.12A16 16 0 0 1 .89 14.8l-.06-.1V.69h17.82v14a15 15 0 0 1-8.74 6.88zm-8.08-7.12a15.5 15.5 0 0 0 8.07 6.24 14.49 14.49 0 0 0 8.07-6.33V1.53H1.67z" transform="translate(-.05)" />
            </g>
        </g>
    </symbol>
    <symbol id="alv" viewBox="0 0 22.84 22.84">
        <g id="Layer_2">
            <g id="Layer_1-2">
                <path
                    fill="#fff"
                    d="M5.4 18.87a.17.17 0 0 0 .13.1l-.29.3-.34.34-.06.06-.11-.11-.61-.63.35-.34.28-.31a4.56 4.56 0 0 0 .65.59zM19.5 4.64l-.06.06-.34.36-.29.26-7.95 8.18-.13-.09 8-8.2c-.19-.21-.38-.42-.59-.63l.28-.28.32-.3.05-.06.53.55.1.1z"
                    transform="translate(.03)"
                />
                <path fill="#fed603" d="M7.12 20l.14.08-.26.27-.34.34-.06.08-.11.11-.06.06-.11-.08-.32-.2-1.31-1.07v-.06l.31-.32.29-.31a.17.17 0 0 0 .13.1 6.85 6.85 0 0 0 1.7 1z" transform="translate(.03)" />
                <path
                    fill="#f6f6f6"
                    d="M11.41 21a9.56 9.56 0 0 0 3-.48l-.51.55-.59.63-.06.06H13a8.58 8.58 0 0 1-1.22.27h-.32a8.29 8.29 0 0 1-2.81 0 5.69 5.69 0 0 1-2.28-1l-.11-.08.57-.56.29-.39.14.08a9.63 9.63 0 0 0 4.15.92z"
                    transform="translate(.03)"
                />
                <path
                    d="M11.41.47a10.92 10.92 0 0 0-4 21.09 7.61 7.61 0 0 0 1.24.44 9.58 9.58 0 0 0 2.76.38 11 11 0 0 0 0-21.89zm1.86 21.24a10.55 10.55 0 0 1-1.86.17 10.2 10.2 0 0 1-4.81-1.19.24.24 0 0 1-.11-.06 10.11 10.11 0 0 1-1.59-1l-.12-.11c-.22-.19-.43-.38-.64-.59A10.45 10.45 0 0 1 18 3.29a8.16 8.16 0 0 1 .73.71c.21.21.4.41.59.62l.11.12a10.36 10.36 0 0 1 1.12 1.67.59.59 0 0 1 .1.17 10.26 10.26 0 0 1 1.21 4.88 9.39 9.39 0 0 1-.07 1.19 10.49 10.49 0 0 1-8.52 9.06z"
                    transform="translate(.03)"
                />
                <path
                    d="M11.41 0a11.42 11.42 0 1 0 11.4 11.44A11.42 11.42 0 0 0 11.41 0zm2.44 21.08a9.2 9.2 0 0 1-2.44.33A9.66 9.66 0 0 1 7 20.34a.17.17 0 0 1-.12-.05 9 9 0 0 1-1.59-1 .38.38 0 0 1-.13-.09c-.23-.19-.46-.38-.67-.59a10 10 0 1 1 14-14.29c.19.21.4.42.57.63a.69.69 0 0 1 .11.13 7.66 7.66 0 0 1 1.1 1.67.42.42 0 0 1 .1.17 9.89 9.89 0 0 1 1.1 4.52 10 10 0 0 1-7.54 9.67z"
                    transform="translate(.03)"
                />
                <path
                    fill="#fff"
                    d="M21.84 10.1a.33.33 0 0 0 0-.14 9.82 9.82 0 0 0-1.14-3.49V6.4l-.06-.1a11.72 11.72 0 0 0-1-1.52l-.06-.07-.06-.06a.29.29 0 0 0-.11-.11c-.15-.19-.33-.38-.51-.57a10.36 10.36 0 0 0-7.36-3 10.54 10.54 0 0 0-6.7 18.68l.11.11a10.7 10.7 0 0 0 1.57 1l.14.06A10.5 10.5 0 0 0 11.41 22a8.51 8.51 0 0 0 1.59-.18 1.11 1.11 0 0 0 .25-.05 10.52 10.52 0 0 0 8.61-9.21v-.3c0-.19.08-.55.08-.83a7.38 7.38 0 0 0-.1-1.33z"
                    transform="translate(.03)"
                />
                <path
                    fill="#192ac2"
                    d="M21 11.41a9.45 9.45 0 0 1-.3 2.37 8.83 8.83 0 0 1-2.7 4.61l-2.73-2.33 5.6-6.42a9.53 9.53 0 0 1 .13 1.77zm-3.63 7.5a9.13 9.13 0 0 1-3 1.63 9.57 9.57 0 0 1-7.15-.47l-.1-.07a7.1 7.1 0 0 1-1.59-1 .17.17 0 0 1-.13-.1 4.17 4.17 0 0 1-.67-.59A9.56 9.56 0 0 1 3 6.93l7.11 5.91.67.57.13.09 1.46 1.22.12.11 4.1 3.4z"
                    transform="translate(.03)"
                />
                <path fill="none" d="M20.87 9.62l-.02.02" />
                <path fill="#192ac2" d="M14.48 15.59l-2.56-2.22 7.2-7.64.05.07a12.56 12.56 0 0 1 1.47 2.9z" transform="translate(.03)" />
                <path fill="#9ed1f2" d="M17.82 4.24a5.17 5.17 0 0 1 .51.42c.14.15.48.67.48.67l-7.4 7.61-1-.84z" transform="translate(.03)" />
            </g>
        </g>
    </symbol>
    <symbol id="bet" viewBox="0 0 20.27 22.81">
        <g id="Layer_2">
            <g id="Layer_1-2">
                <path fill="#fff" d="M.42 4.56s8.58-9.41 19.44 0c0 0 .83 10.76-4.16 13.72-4.35 2.6-5.29 4-5.29 4a38.23 38.23 0 0 0-6.68-4.12C0 16.38.42 4.56.42 4.56z" transform="translate(.01 -.01)" />
                <path
                    d="M10.49 22.82l-.33-.26a38.83 38.83 0 0 0-6.59-4.07C-.4 16.65 0 5 0 4.55V4.4l.09-.11c.09-.09 9-9.59 20 0l.12.11v.16c0 .45.79 11-4.34 14.1-4.18 2.49-5.17 3.83-5.18 3.85zM.81 4.73c-.11 3.32.24 11.72 3.09 13a39.69 39.69 0 0 1 6.45 3.93 24.39 24.39 0 0 1 5.15-3.76c4.39-2.61 4.05-11.85 4-13.19C9.62-3.69 1.82 3.69.81 4.73z"
                    transform="translate(.01 -.01)"
                />
                <path fill="#7ae68d" d="M2.93 4.07a3.63 3.63 0 0 1 2.41-1.14v13l-2.41-.33zm5.68-2.44a4.84 4.84 0 0 1 2.56 0v13.42H8.61zm5.84 1.29A6.14 6.14 0 0 1 17 4v11.62l-2.59-.57z" transform="translate(.01 -.01)" />
                <path fill="#c8a400" d="M10.29 20.59a20.77 20.77 0 0 1 6.75-5 20.73 20.73 0 0 0-14.11 0s6.73 3.52 7.36 5z" transform="translate(.01 -.01)" />
            </g>
        </g>
    </symbol>
    <symbol id="clv" viewBox="0 0 19.88 22.52">
        <g id="Layer_2">
            <g id="Layer_1-2">
                <path fill="#ffff29" d="M10 20.84S3.89 16 3.48 15.06a54 54 0 0 1-2-10.61A22.05 22.05 0 0 0 10 1.56z" />
                <path fill="#2aa4d5" d="M16.41 15.37L10 20.84V1.56s4.92 2.94 8.52 2.89c-.05 0 .04 8.08-2.11 10.92z" />
                <path
                    d="M10 22.52L9.32 22c-2.46-2-6.64-5.42-7.08-6.4A57.87 57.87 0 0 1 .06 4.15L0 3.34l.92-.1A22.38 22.38 0 0 0 9.38.36L9.93 0l.57.34c.05 0 4.89 2.89 8.32 2.89h1.06v.86c0 .36.07 8.81-2.33 12l-.14.15zM1.77 4.58A58.93 58.93 0 0 0 3.82 15.1 58.9 58.9 0 0 0 10 20.52l6.27-5.32c1.56-2.18 2-7.72 2-10.53A24.63 24.63 0 0 1 10 1.74a25.08 25.08 0 0 1-8.23 2.84z"
                />
                <path
                    fill="#fff"
                    d="M10 21.59l-.52-.41c-1.83-1.48-6.16-5-6.58-5.94a54.22 54.22 0 0 1-2-10.65L.82 4l.7-.07a21.08 21.08 0 0 0 8-2.73l.42-.3.43.26c.05 0 4.62 2.74 7.88 2.74h.82v.65c0 .33.07 8.2-2.15 11.13l-.1.11zM2.15 4.91a55.73 55.73 0 0 0 1.93 10A53 53 0 0 0 10 20.08L16 15c1.51-2.09 1.89-7.45 1.92-10A22.35 22.35 0 0 1 10 2.21a23 23 0 0 1-7.85 2.7z"
                />
                <path fill="#409ec8" d="M9.82 15.06c4.25 0 3.65-7.49 3.65-7.49A6.63 6.63 0 0 1 10 5.81C9 7 6.17 7.57 6.17 7.57s-.54 7.49 3.65 7.49z" />
                <path fill="#ebebeb" d="M9.82 14.36c3.61 0 3.09-6.35 3.09-6.35a5.72 5.72 0 0 1-3-1.5C9.11 7.52 6.73 8 6.73 8s-.47 6.36 3.09 6.36z" />
            </g>
        </g>
    </symbol>
    <symbol id="ccf" viewBox="0 0 19.81 22.76">
        <g id="Layer_2">
            <g id="Layer_1-2">
                <path fill="#fff" d="M.79 8.36a2.48 2.48 0 0 1-.23-2.29C1.4 4 3.78.27 9.93.39c5.94.11 8.35 3.52 9.26 5.52A2.62 2.62 0 0 1 19 8.4l-8.65 13.75a.5.5 0 0 1-.69.15.54.54 0 0 1-.15-.15z" />
                <path
                    d="M9.93 22.76a.86.86 0 0 1-.74-.41L.46 8.56a2.91 2.91 0 0 1-.25-2.64C1.14 3.66 3.65-.12 9.94 0c6.14.12 8.65 3.66 9.6 5.75a3 3 0 0 1-.19 2.86l-8.68 13.74a.86.86 0 0 1-.74.41zM1.11 8.15l8.73 13.79H10L18.7 8.2a2.27 2.27 0 0 0 .14-2.13C18 4.14 15.64.88 9.92.77s-8.15 3.36-9 5.44a2.15 2.15 0 0 0 .19 1.94z"
                />
                <path fill="#c1f0fc" d="M2 7.85a1.6 1.6 0 0 1-.11-1.53c.71-1.56 2.81-4.74 8-4.64s7.22 3 8 4.49a1.69 1.69 0 0 1-.05 1.7l-8 12.92z" />
                <path fill="#ff1417" d="M13.88 14.39l-3.96-4.08L6 14.39l-1.71-2.8 5.67-5.85 5.64 5.85-1.72 2.8z" />
                <path fill="#fff" d="M6 14.7l-1.95-3.13 6-6.11 5.88 6.11-2 3.13-4-4.11zm4-4.7l3.92 4.05 1.52-2.46L10 6l-5.43 5.6L6 14.07z" />
            </g>
        </g>
    </symbol>
    <symbol id="atm" viewBox="0 0 18.78 23.1">
        <g id="Layer_2">
            <g id="Layer_1-2">
                <path fill="#fff" d="M.39 3.77S6.22 5 9.6.68c0 0 2.15 3.49 8.79 3.25v11.85a5.7 5.7 0 0 1-.36 2c-.73 1.88-2.83 5.11-8.64 4.89-8.15-.31-9-6-9-6z" />
                <path
                    d="M10 23.1h-.62C1 22.77 0 16.87 0 16.81V3.29l.47.1C.53 3.4 6.11 4.52 9.3.44L9.64 0l.3.47s2.14 3.31 8.44 3.07h.4v12.24A6.21 6.21 0 0 1 18.4 18c-.76 1.91-2.86 5.1-8.4 5.1zM.78 4.23v12.52c0 .16.92 5.27 8.63 5.56 5.54.23 7.55-2.82 8.26-4.64a5.09 5.09 0 0 0 .33-1.89V4.33c-5.23.07-7.6-2.08-8.41-3-2.97 3.36-7.36 3.1-8.81 2.9z"
                />
                <path fill="#2f65ee" d="M1.9 5.12a8.14 8.14 0 0 0 7.49-2.78s1.86 2.85 7.85 2.89L1.9 14.82z" />
                <path fill="#fe0200" d="M14.72 8.1l2.52-1.66v10.78s-1.43 2.55-2.52 2.78zm-2.08 1.66l-5 2.94V21a16.41 16.41 0 0 0 5.14 0zm-7.81 4.71v6s-2.66-1.36-3.16-3.87z" />
            </g>
        </g>
    </symbol>
    <symbol id="fcb" viewBox="0 0 21.19 22.42">
        <g id="Layer_2">
            <g id="Layer_1-2">
                <path fill="#fff" d="M19.59 10.2a8.53 8.53 0 0 1 .48 5.3c-.63 3-2.5 6.66-9.48 6.71C4.26 22.25 1.88 18.94 1 16a9.91 9.91 0 0 1 .42-6.29c.86-2.15 1.66-5.65-.79-7.57l2-1.4s6.86 6 16.33 0l1.64 1.33a7.37 7.37 0 0 0-1.01 8.13z" />
                <path
                    fill="#f2d001"
                    d="M18.63 2.39a7.19 7.19 0 0 0-1.29 3.74 11.06 11.06 0 0 0-.05 1.15 17.44 17.44 0 0 1-1.72.59 10.7 10.7 0 0 1-1.24.31c-.28.06-.57.12-.85.16a8.3 8.3 0 0 1-1 .14 4.74 4.74 0 0 1-.75.06 18 18 0 0 1-2.08 0 3.62 3.62 0 0 1-.93-.08A4.51 4.51 0 0 1 8 8.34c-.4-.06-.77-.14-1.11-.21l-.38-.08-.59-.18a10.69 10.69 0 0 1-1.64-.59h-.06a.49.49 0 0 0 0-.17 6.84 6.84 0 0 0-1.38-4.7s6.84 5.66 15.79-.02z"
                />
                <path
                    d="M21.19 1.81L19 0l-.24.16C9.65 6 3.17.46 2.89.22L2.65 0 0 1.92l.43.32c2.27 1.8 1.4 5.22.68 7.1a10.26 10.26 0 0 0-.43 6.56c.86 3 3.26 6.52 9.83 6.52h.13c5.65-.05 8.89-2.35 9.86-7a8.76 8.76 0 0 0-.5-5.6 6.9 6.9 0 0 1 .9-7.68zm-1.92 8.35a8.1 8.1 0 0 1 .44 5.05c-.89 4.26-3.86 6.35-9.08 6.39h-.12c-6.06 0-8.27-3.22-9.06-5.93a9.5 9.5 0 0 1 .42-6c.77-2 1.64-5.51-.55-7.66l1.3-1C4 2 10.47 6.25 18.93 1l1.07.92a7.83 7.83 0 0 0-.73 8.24z"
                />
                <path
                    fill="#0013aa"
                    d="M7.85 9v11.27a8.15 8.15 0 0 1-2-.56V8.61a13.59 13.59 0 0 0 2 .39zm3.88.13v11.38h-2V9.17a8.34 8.34 0 0 0 1 0c.27 0 .64-.02 1-.04zm3.82-.6v11a6.9 6.9 0 0 1-2.05.78V8.93h.22a18.61 18.61 0 0 0 1.83-.4z"
                />
                <path
                    fill="#c30000"
                    d="M5.76 8.59v11.1a5.21 5.21 0 0 1-3-3.68 9.16 9.16 0 0 1 .47-5.64A12.92 12.92 0 0 0 4 7.79a8.36 8.36 0 0 0 1.76.8zM9.7 20.47a15.73 15.73 0 0 1-1.8-.2V9.05a17 17 0 0 0 1.74.12v11.3zm3.8-.14a8.82 8.82 0 0 1-1.7.16V9.13a10.37 10.37 0 0 0 1.67-.2v11.42l.03-.02zm4.67-3.98a6.22 6.22 0 0 1-2.56 3.22v-11c.61-.14 1.23-.3 1.88-.48a19.65 19.65 0 0 0 .7 2.94 8.28 8.28 0 0 1-.02 5.32z"
                />
            </g>
        </g>
    </symbol>
    <symbol id="eib" viewBox="0 0 20.34 23.02">
        <g id="Layer_2">
            <g id="Layer_1-2">
                <path fill="#173080" d="M18.1 7.82c-.19 2.7-.71 6-1.82 7.53l-6.09 5.17a53.18 53.18 0 0 1-6-5.32l6-3.18z" />
                <path fill="#fd2473" d="M10.18 20.53v.79s-6.18-5-6.63-5.92a57.92 57.92 0 0 1-2-10.85 22.66 22.66 0 0 0 8.63-2.95V12l-6 3.18a53.45 53.45 0 0 0 6 5.35z" />
                <path fill="#ebeee7" d="M16.77 15.72l-6.58 5.59v-.79l6.09-5.17c1.11-1.54 1.63-4.83 1.82-7.53L10.19 12V1.6s5 3 8.71 2.95c-.01 0 .1 8.26-2.13 11.17z" />
                <path
                    d="M20.34 4.18v-.89h-1.11c-3.5 0-8.45-2.91-8.49-2.94L10.16 0l-.58.37A23.18 23.18 0 0 1 1 3.32l-1 .09.07.84A57.83 57.83 0 0 0 2.3 15.92c.44 1 4.72 4.54 7.22 6.55l.7.55 7.58-6.46.15-.13c2.46-3.25 2.39-11.88 2.39-12.25zm-1.69.6c-.06 2.86-.48 8.52-2.08 10.76L10.19 21a57.32 57.32 0 0 1-6.29-5.57A60.43 60.43 0 0 1 1.81 4.68a25.62 25.62 0 0 0 8.37-2.89 24.85 24.85 0 0 0 8.47 2.99z"
                />
                <path
                    fill="#fff"
                    d="M19.51 4.64V4h-.84c-3.33 0-8-2.77-8-2.8l-.51-.28-.43.28A21.35 21.35 0 0 1 1.56 4l-.72.08.05.64A55.76 55.76 0 0 0 3 15.58c.43 1 4.85 4.56 6.73 6.06l.53.43 7-5.94.1-.12C19.57 13 19.51 5 19.51 4.64zm-9.32 15.88a53.18 53.18 0 0 1-6-5.32A55.39 55.39 0 0 1 2.21 5a24.11 24.11 0 0 0 8-2.74c1.26.69 4.89 2.57 8 2.83a21.42 21.42 0 0 1-.13 2.72c-.19 2.7-.71 6-1.82 7.53z"
                />
            </g>
        </g>
    </symbol>
    <symbol id="elc" viewBox="0 0 21.51 22.78">
        <g id="Layer_2">
            <g id="Layer_1-2">
                <path fill="#fff" d="M.68 2l2-1.43s7 6.11 16.59 0l1.66 1.36a7.49 7.49 0 0 0-1 8.26 8.6 8.6 0 0 1 .49 5.39c-.64 3-2.53 6.76-9.62 6.81C4.35 22.38 1.94 19 1.08 16a10 10 0 0 1 .43-6.39C2.34 7.47 3.17 3.91.68 2z" />
                <path
                    d="M10.67 22.75c-6.67 0-9.11-3.59-10-6.61a10.42 10.42 0 0 1 .45-6.66C1.86 7.57 2.74 4.1.43 2.27L0 1.94 2.69 0l.24.21C3.21.46 9.81 6 19 .18l.28-.18 2.23 1.82-.3.32A7 7 0 0 0 20.3 10a9.1 9.1 0 0 1 .52 5.64c-1 4.77-4.28 7.1-10 7.14zM1.34 2c2.22 2.2 1.32 5.79.55 7.79a9.65 9.65 0 0 0-.42 6.14c.8 2.75 3 6 9.2 6h.12c5.3 0 8.32-2.16 9.23-6.49a8.18 8.18 0 0 0-.46-5.12 8 8 0 0 1 .77-8.38L19.21 1C10.63 6.33 4 2.06 2.65 1z"
                />
                <path fill="#236826" d="M3.25 8.69A10.44 10.44 0 0 0 2 14.61h17a10.83 10.83 0 0 0-.79-5.92z" />
                <path fill="#c50302" d="M2.25 15.22s.83 3 1.69 3H18a5.87 5.87 0 0 0 1-3z" />
                <path fill="#e6e6e6" d="M4.15 18.93a12.19 12.19 0 0 0 13.39 0z" />
            </g>
        </g>
    </symbol>
    <symbol id="hue" viewBox="0 0 20 22.6">
        <g id="Layer_2">
            <g id="Layer_1-2">
                <path
                    fill="#fd2473"
                    d="M10 20.14v.78S8.36 19.6 6.72 18.2a43.02 43.02 0 0 1-1.76-1.54 7.94 7.94 0 0 1-1.47-1.54 54.46 54.46 0 0 1-2-10.66A23.25 23.25 0 0 0 5 3.74 20 20 0 0 0 7.14 3 16.25 16.25 0 0 0 10 1.57v.67a17.34 17.34 0 0 1-2.72 1.29c-.81.32-1.59.58-2.32.79a26.68 26.68 0 0 1-2.79.61 54.87 54.87 0 0 0 1.93 10 5.36 5.36 0 0 0 .86.92c.57.54 1.39 1.26 2.32 2.06l.11.09 1.22 1c.45.38.91.76 1.38 1.13z"
                />
                <path
                    fill="#ebeee7"
                    d="M16.46 15.43l-1.4 1.19-2.16 1.85-2.9 2.45v-.78l2.72-2.31 2.34-2 .92-.77c1.09-1.51 1.6-4.74 1.79-7.38.09-1 .12-2 .13-2.68a13 13 0 0 1-2.84-.59 21 21 0 0 1-2.34-.85A29.82 29.82 0 0 1 10 2.22v-.65A25.71 25.71 0 0 0 12.88 3a17.5 17.5 0 0 0 2.18.84 11.47 11.47 0 0 0 3.48.61s.09 8.13-2.08 10.98z"
                />
                <path
                    d="M20 4.1v-.87h-1.13c-3.43 0-8.28-2.86-8.33-2.89L10 0l-.59.36a22.86 22.86 0 0 1-8.48 2.9L0 3.34l.07.83a56.69 56.69 0 0 0 2.18 11.46c.44 1 4.64 4.45 7.1 6.43l.68.54 4.86-4.13.17-.16 2.42-2 .14-.13C20 12.94 20 4.46 20 4.1zm-4.9 12.17l-2.34 2L10 20.58C9 19.79 8 19 7.1 18.2S5.53 16.84 5 16.31a7.82 7.82 0 0 1-1.14-1.16 62.24 62.24 0 0 1-2-10.56A24.19 24.19 0 0 0 5 3.87c.73-.22 1.51-.48 2.31-.8A18.06 18.06 0 0 0 10 1.76c.59.32 1.56.83 2.72 1.33a19.48 19.48 0 0 0 2.34.9 15.61 15.61 0 0 0 3.25.73c-.06 2.8-.47 8.36-2 10.55z"
                />
                <path
                    fill="#fff"
                    d="M19.15 4.55V3.9h-.83a10.88 10.88 0 0 1-3.25-.62c-.4-.13-.8-.28-1.17-.44a26.59 26.59 0 0 1-3.48-1.69L10 .9l-.42.28A16.25 16.25 0 0 1 6 2.86c-.35.14-.7.24-1 .34a21.1 21.1 0 0 1-3.43.71L.83 4v.63a54.76 54.76 0 0 0 2 10.69A11.23 11.23 0 0 0 5 17.45l.86.75c1.32 1.14 2.79 2.35 3.69 3l.52.43 3.75-3.2 1.28-1.09 1.82-1.55.1-.11c2.19-2.9 2.13-10.78 2.13-11.13zm-4.09 11.28l-2.34 2L10 20.14c-.47-.37-.93-.75-1.38-1.13L7.39 18l-.11-.09c-.93-.8-1.75-1.52-2.32-2.06a5.36 5.36 0 0 1-.86-.92 54.87 54.87 0 0 1-1.93-10A27.42 27.42 0 0 0 5 4.32c.73-.21 1.51-.47 2.32-.79A16.93 16.93 0 0 0 10 2.24a29.82 29.82 0 0 0 2.72 1.34 21 21 0 0 0 2.34.85A13.12 13.12 0 0 0 17.9 5a20.76 20.76 0 0 1-.13 2.68c-.19 2.64-.7 5.87-1.79 7.38z"
                />
                <path
                    fill="#14175b"
                    d="M5 4.32v11.53a5.36 5.36 0 0 1-.86-.92 54.87 54.87 0 0 1-1.93-10A26.68 26.68 0 0 0 5 4.32zM17.9 5a20.76 20.76 0 0 1-.13 2.68c-.19 2.64-.7 5.87-1.79 7.38l-.92.77V4.41A13 13 0 0 0 17.9 5zm-5.18-1.44v14.27L10 20.14c-.47-.37-.93-.75-1.38-1.13L7.39 18l-.11-.09V3.53A17.34 17.34 0 0 0 10 2.24a27.28 27.28 0 0 0 2.72 1.32z"
                />
                <path fill="#bf183f" d="M7.28 3.53v14.38c-.93-.8-1.75-1.52-2.32-2.06V4.32c.73-.21 1.51-.47 2.32-.79zm7.78.88v11.42l-2.34 2V3.56a21 21 0 0 0 2.34.85z" />
            </g>
        </g>
    </symbol>
    <symbol id="gra" viewBox="0 0 18.95 22">
        <g id="Layer_2">
            <g id="Layer_1-2">
                <path d="M19 0v14.69A15.86 15.86 0 0 1 9.62 22h-.25c-.25-.07-6.22-1.82-9.32-7.12V0z" transform="translate(-.05)" />
                <path fill="#fff" d="M.81.69h17.36v13.62A14.52 14.52 0 0 1 9.62 21h-.24a15.74 15.74 0 0 1-8.51-6.57" transform="translate(-.05)" />
                <path fill="#0049ec" d="M1.63 5.79h15.62V9.5H1.63zm0 8.77l.78 1.17H16.4l.85-1.17H1.63z" />
                <path fill="#fe0200" d="M1.63 4.66h15.62v3.71H1.63zm0 6.19h15.62v3.71H1.63z" />
            </g>
        </g>
    </symbol>
    <symbol id="get" viewBox="0 0 22.56 22.56">
        <g id="Layer_2">
            <g id="Layer_1-2">
                <circle cx="11.28" cy="11.28" r="10.58" fill="#3d9fcd" />
                <path fill="#fff" d="M18.58 3.84L4.05 18.71l.74.73L19.26 4.57l-.68-.73z" />
                <path fill="#fed603" d="M20.48 6.4l-1.3-1.96L4.64 19.36l1.66 1.32L20.48 6.4z" />
                <path fill="#f6f6f6" d="M21.61 12.4S22 8 20.45 6.15L6.2 20.62s2.42 2.19 6.87.9z" />
                <path d="M11.28 22.09a10.81 10.81 0 1 1 10.81-10.81 10.82 10.82 0 0 1-10.81 10.81zm0-21.15a10.34 10.34 0 1 0 10.34 10.34A10.35 10.35 0 0 0 11.28.94z" />
                <path d="M11.28 22.56a11.28 11.28 0 1 1 11.28-11.28 11.29 11.29 0 0 1-11.28 11.28zm0-21.15a9.88 9.88 0 1 0 9.88 9.88 9.89 9.89 0 0 0-9.88-9.88z" />
                <path fill="#fff" d="M11.28 21.7A10.42 10.42 0 1 1 21.7 11.28 10.43 10.43 0 0 1 11.28 21.7zm0-19.9a9.48 9.48 0 1 0 9.48 9.48 9.5 9.5 0 0 0-9.48-9.48z" />
            </g>
        </g>
    </symbol>
    <symbol id="lvt" viewBox="0 0 19.68 23.03">
        <g id="Layer_2">
            <g id="Layer_1-2">
                <path
                    fill="#ebebeb"
                    d="M19.33 5V3.34h-4.86a4.88 4.88 0 0 0-4.75-3 4.93 4.93 0 0 0-4.72 3H.36L.43 5.1c.08 1 .22 2.11.39 3.25A47.69 47.69 0 0 0 2.5 16a9.75 9.75 0 0 0 1.85 2c.54.5 1.18 1 1.81 1.58 1 .81 1.94 1.61 2.75 2.26a3 3 0 0 0 .34.28l.65.51.82-.71 2.67-2.26 1.81-1.55 1.8-1.53.14-.12C18.49 14.65 19 11 19.21 8.35c.14-1.8.12-3.18.12-3.35zm-3.55 11l-.58.45-1.81 1.41-2.67 2.08-1 .74-.56-.38-.25-.3c-.81-.61-1.82-1.36-2.75-2.09-.69-.54-1.32-1.07-1.81-1.51a4.18 4.18 0 0 1-.88-.95A34.51 34.51 0 0 1 2 9.11h15.73c-.15 2.11-.58 5.24-1.82 6.74zm2-7.6H2c-.12-.8-.21-1.58-.26-2.3l-.06-1.5h4a4.17 4.17 0 0 1 4-2.6 4.15 4.15 0 0 1 4.05 2.55h4.15V6c0 .09 0 1-.07 2.35z"
                    transform="translate(0 .01)"
                />
                <path
                    d="M19.68 3h-5a5.25 5.25 0 0 0-5-3 5.35 5.35 0 0 0-5 3H0l.08 2.13c.09.92.21 2 .38 3.22v.05a48.72 48.72 0 0 0 1.71 7.73c.09.18.27.61 2.17 2.32L6.16 20c.76.63 1.66 1.38 2.75 2.25l.13.09.87.68.81-.69 2.67-2.27 1.81-1.54 2-1.7.18-.18c1.43-1.88 2-5.54 2.17-8.3.11-1.48.12-2.68.12-3.29zM19 5.07c0 .58 0 1.78-.13 3.25-.19 2.65-.7 6.16-2 7.85l-1.67 1.45-1.81 1.55-2.67 2.28-.84.72-.41-.33-.56-.46c-1.1-.89-2-1.65-2.75-2.28s-1.35-1.16-1.81-1.59a8 8 0 0 1-1.53-1.66 48 48 0 0 1-1.65-7.5v-.06C1 7.05.84 6 .77 5.09l-.05-1.4h4.49l.08-.24A4.59 4.59 0 0 1 9.72.69a4.53 4.53 0 0 1 4.42 2.76l.08.24H19z"
                    transform="translate(0 .01)"
                />
                <path fill="#393939" d="M17.8 8.35H2c-.12-.8-.21-1.58-.26-2.3l-.06-1.5h4A4.16 4.16 0 0 1 9.67 2a4.15 4.15 0 0 1 4.05 2.55h4.15V6c0 .09.01 1.05-.07 2.35z" transform="translate(0 .01)" />
                <path fill="#004cbc" d="M4.35 9.11v7.32a4.18 4.18 0 0 1-.88-.95A34.82 34.82 0 0 1 2 9.11zm4.56 0V20c-.81-.61-1.82-1.36-2.75-2.09v-8.8z" transform="translate(0 .01)" />
                <path fill="#004cbc" d="M13.39 9.12v8.7l-2.67 2.08V9.12h2.67z" />
                <path fill="#004cbc" d="M17.73 9.11c-.15 2.11-.58 5.24-1.82 6.74l-.13.1-.58.45V9.11z" transform="translate(0 .01)" />
                <path fill="#c30000" d="M6.16 9.11v8.83c-.69-.54-1.32-1.07-1.81-1.51V9.11zm4.56 0v10.78l-1 .74-.56-.38-.25-.25V9.11z" transform="translate(0 .01)" />
                <path fill="#c30000" d="M15.2 9.12v7.29l-1.81 1.41v-8.7h1.81z" />
            </g>
        </g>
    </symbol>
    <symbol id="soc" viewBox="0 0 23.71 23.66">
        <g id="Layer_2">
            <g id="Layer_1-2">
                <path fill="#0109b3" d="M3.83 8.87v8.84a9.82 9.82 0 0 1-1.89-4.87 5.92 5.92 0 0 1-.05-.84 8.37 8.37 0 0 1 .05-1 9.23 9.23 0 0 1 .7-2.73c.36.2.77.39 1.19.6z" />
                <path
                    fill="#fefef7"
                    d="M22.3 8.19a4.23 4.23 0 0 0-.24-.68 1.08 1.08 0 0 0-.12-.24 11.09 11.09 0 0 0-20.32.21 1 1 0 0 0-.07.15 2 2 0 0 0-.08.26 11 11 0 0 0-.74 3.93 10.36 10.36 0 0 0 .74 3.93 10.28 10.28 0 0 0 2.36 3.76 11.53 11.53 0 0 0 2 1.62 9.23 9.23 0 0 0 2.34 1.14 9.35 9.35 0 0 0 3 .63h1.7a10 10 0 0 0 2.42-.51 9.19 9.19 0 0 0 2.24-1 10.34 10.34 0 0 0 2.51-2 10.34 10.34 0 0 0 2.34-3.91 10.8 10.8 0 0 0 0-7.27zM21.78 12a7.89 7.89 0 0 1-.05.84 10 10 0 0 1-4.24 7.21 8.64 8.64 0 0 1-2.34 1.15 8.88 8.88 0 0 1-2.32.53c-.32 0-.63.05-.95.05a9.84 9.84 0 0 1-3.72-.73 9 9 0 0 1-2.38-1.35 9.48 9.48 0 0 1-1.95-2 9.82 9.82 0 0 1-1.89-4.87 5.78 5.78 0 0 1-.05-.83 8.37 8.37 0 0 1 .05-1 8.73 8.73 0 0 1 .63-2.76A6.63 6.63 0 0 1 3 7.3a9.93 9.93 0 0 1 17.73.09 6.58 6.58 0 0 1 .36.82 9.21 9.21 0 0 1 .64 2.79c.03.32.05.65.05 1zm-2.67-6.78a9.49 9.49 0 0 0-6.48-3.14 10 10 0 0 1 6.48 3.14zM9.76 2.27A9.3 9.3 0 0 0 5.2 4.59a10.12 10.12 0 0 1 4.56-2.32z"
                />
                <path
                    d="M22.3 7.48l-.05-.11a.17.17 0 0 0-.05-.12 11.34 11.34 0 1 0-20.73 9.19 11.59 11.59 0 0 0 2.36 3.44 11.4 11.4 0 0 0 2 1.53 10.14 10.14 0 0 0 2.34 1.14 10.4 10.4 0 0 0 3.27.61 3.38 3.38 0 0 0 .45 0h.95a11.82 11.82 0 0 0 2.63-.54 10.32 10.32 0 0 0 2-.91 10.78 10.78 0 0 0 2.51-2 11.08 11.08 0 0 0 2.34-3.55 11 11 0 0 0 0-8.68zM8.12 22a11.41 11.41 0 0 1-2.34-1.18 11 11 0 0 1-1.95-1.71A10.71 10.71 0 0 1 1 11.82a10.59 10.59 0 0 1 .49-3.21 5 5 0 0 1 .31-.84 3.65 3.65 0 0 1 .14-.35 10.84 10.84 0 0 1 19.74-.12 1.36 1.36 0 0 1 .17.39A7.5 7.5 0 0 1 22.3 9a9.45 9.45 0 0 1 .39 2.79 9.65 9.65 0 0 1-.39 2.82A10.38 10.38 0 0 1 20 19a10.87 10.87 0 0 1-2.51 2.12 11.2 11.2 0 0 1-2.34 1.06 9.64 9.64 0 0 1-2.32.46c-.32 0-.63.05-.95.05a6.7 6.7 0 0 1-1-.05A11 11 0 0 1 8.12 22z"
                />
                <path
                    d="M22.65 7.06a11.83 11.83 0 0 0-21.72.17 11.74 11.74 0 0 0 .54 10.27 10.73 10.73 0 0 0 2.36 3 9.59 9.59 0 0 0 2 1.46 10.17 10.17 0 0 0 2.34 1.09 11.47 11.47 0 0 0 3.72.61H12a5.69 5.69 0 0 0 .83-.06 9.93 9.93 0 0 0 3-.64 9.14 9.14 0 0 0 1.66-.74A11.26 11.26 0 0 0 20 20.4a11.12 11.12 0 0 0 2.34-3.07 11.73 11.73 0 0 0 .35-10.27zM8.12 21.5a10 10 0 0 1-2.34-1.27 10.2 10.2 0 0 1-1.95-1.82A10.34 10.34 0 0 1 2.2 8a4.43 4.43 0 0 1 .3-.67 10.35 10.35 0 0 1 18.67 0c.1.2.2.41.28.62A10.29 10.29 0 0 1 20 18.23a9.29 9.29 0 0 1-2.51 2.29 8.91 8.91 0 0 1-2.34 1.14 9.69 9.69 0 0 1-2.32.49c-.32 0-.63.05-.95.05a9.33 9.33 0 0 1-1.4-.11 9.18 9.18 0 0 1-2.36-.59z"
                />
                <path
                    fill="#fff"
                    d="M22.3 8.72a7 7 0 0 0-.38-1.09 1.58 1.58 0 0 0-.16-.35 10.92 10.92 0 0 0-19.93.16c-.05.09-.08.19-.12.28s-.17.44-.24.66a10.83 10.83 0 0 0 0 6.89 10.61 10.61 0 0 0 2.36 4 10.4 10.4 0 0 0 4.29 2.86 9.83 9.83 0 0 0 2.78.62c.31 0 .63.05.94.05a6.11 6.11 0 0 0 .95-.05 10.69 10.69 0 0 0 2.32-.44 10.14 10.14 0 0 0 2.34-1.08A9.81 9.81 0 0 0 20 19.11a10.62 10.62 0 0 0 2.34-4.18 10.77 10.77 0 0 0 0-6.21zm-.57 4.12a10 10 0 0 1-4.24 7.21 8.64 8.64 0 0 1-2.34 1.15 8.88 8.88 0 0 1-2.32.53c-.32 0-.63.05-.95.05a9.84 9.84 0 0 1-3.72-.73 9 9 0 0 1-2.38-1.35 9.48 9.48 0 0 1-1.95-2 9.82 9.82 0 0 1-1.89-4.87 5.78 5.78 0 0 1-.05-.83 8.37 8.37 0 0 1 .05-1 8.73 8.73 0 0 1 .63-2.76A6.63 6.63 0 0 1 3 7.3a9.93 9.93 0 0 1 17.73.09 6.58 6.58 0 0 1 .36.82 9.21 9.21 0 0 1 .64 2.79c0 .33.05.66.05 1a7.89 7.89 0 0 1-.05.84z"
                />
                <path
                    fill="#fff"
                    d="M21.08 8.21a6.58 6.58 0 0 0-.36-.82A9.93 9.93 0 0 0 3 7.3a7.78 7.78 0 0 0-.42.93A8.8 8.8 0 0 0 1.94 11a9.23 9.23 0 0 1 .7-2.73c.36.21.77.4 1.19.61a18.81 18.81 0 0 0 2 .84c.73.26 1.52.51 2.34.72a20.46 20.46 0 0 0 2.32.4 15.4 15.4 0 0 0 2.35.09 16.45 16.45 0 0 0 2.32-.25 14 14 0 0 0 2.29-.68A14.8 14.8 0 0 0 20 8.89c.35-.19.7-.4 1.07-.65a9.68 9.68 0 0 1 .7 2.75 9.15 9.15 0 0 0-.69-2.78zM20 8.19a16.41 16.41 0 0 1-2.51 1 14.55 14.55 0 0 1-2.34.58 18 18 0 0 1-2.32.21 18.45 18.45 0 0 1-2.35-.07c-.8-.09-1.57-.21-2.32-.37a23.81 23.81 0 0 1-2.34-.64 20.16 20.16 0 0 1-1.95-.76c-.42-.19-.6-.24-1-.43.07-.14.12-.29.2-.44s.06-.07.06-.1a10.07 10.07 0 0 1 .94-1.4 5.3 5.3 0 0 1 .54-.63.34.34 0 0 1 .12-.14 2.13 2.13 0 0 1 .3-.3.37.37 0 0 1 .17-.16 9.33 9.33 0 0 1 4.56-2.27 9.16 9.16 0 0 1 1.38-.19h1.49a9.49 9.49 0 0 1 6.48 3.14 2.64 2.64 0 0 1 .43.51 4.91 4.91 0 0 1 .39.51 3.92 3.92 0 0 1 .42.64 4.49 4.49 0 0 1 .24.42 2.64 2.64 0 0 1 .23.44c-.27.16-.54.31-.82.45z"
                />
                <path
                    fill="#ceaa05"
                    d="M20.82 7.74a7.84 7.84 0 0 1-.86.45 16.41 16.41 0 0 1-2.51 1 14.55 14.55 0 0 1-2.34.58 18 18 0 0 1-2.32.21 18.45 18.45 0 0 1-2.35-.07c-.8-.09-1.57-.21-2.32-.37a23.81 23.81 0 0 1-2.34-.64 20.16 20.16 0 0 1-1.95-.76c-.42-.19-.6-.24-1-.43.06-.14.14-.28.21-.44s.06-.07.06-.1.17-.27.24-.39a10 10 0 0 1 .7-1 8.14 8.14 0 0 1 .54-.63A.34.34 0 0 1 4.7 5l.3-.3a.37.37 0 0 1 .17-.16 9.32 9.32 0 0 1 4.59-2.3 10.89 10.89 0 0 1 1.38-.19h1.49a9.49 9.49 0 0 1 6.48 3.14 2.64 2.64 0 0 1 .43.51 4.91 4.91 0 0 1 .39.51 3.92 3.92 0 0 1 .42.64c.09.14.16.28.24.42a2.64 2.64 0 0 1 .23.47z"
                />
                <path fill="#0109b3" d="M8.12 10.43v10.62a9.26 9.26 0 0 1-2.34-1.35v-10a17.78 17.78 0 0 0 2.34.73z" />
                <path fill="#fffbf9" d="M5.78 9.71v10a9.48 9.48 0 0 1-1.95-2V8.87c.61.3 1.27.58 1.95.84zm4.66 1.12v10.85a9.27 9.27 0 0 1-2.32-.63V10.43a20.46 20.46 0 0 0 2.32.4z" />
                <path fill="#0109b3" d="M12.79 10.92v10.81c-.32 0-.63.05-.95.05a9.32 9.32 0 0 1-1.4-.1V10.83a15.4 15.4 0 0 0 2.35.09z" />
                <path fill="#fffbf9" d="M15.11 10.67V21.2a8.88 8.88 0 0 1-2.32.53V10.92a16.45 16.45 0 0 0 2.32-.25z" />
                <path fill="#0109b3" d="M17.45 10v10a8.64 8.64 0 0 1-2.34 1.15V10.67a14.55 14.55 0 0 0 2.34-.67z" />
                <path fill="#fffbf9" d="M20 8.89v8.65a10 10 0 0 1-2.51 2.51V10A14.41 14.41 0 0 0 20 8.89z" />
                <path fill="#0109b3" d="M21.78 12a7.89 7.89 0 0 1-.05.84 10 10 0 0 1-1.73 4.7V8.89c.35-.19.7-.4 1.07-.65a9.68 9.68 0 0 1 .7 2.75c-.01.33.01.66.01 1.01z" />
            </g>
        </g>
    </symbol>
    <symbol id="osa" viewBox="0 0 20.25 22.94">
        <g id="Layer_2">
            <g id="Layer_1-2">
                <path fill="#e90a0a" d="M10.16 20.44v.8s-6.2-5-6.62-5.89a55.72 55.72 0 0 1-1.95-9.83c0-.34-.05-.66-.08-1a22.47 22.47 0 0 0 8.63-2.94v.68A23.68 23.68 0 0 1 2.18 5a5.19 5.19 0 0 0 .11.86 18.19 18.19 0 0 0 7.85 2z" />
                <path fill="#020610" d="M18.81 4.53v.4c0 1.68-.2 8.22-2.1 10.73l-6.55 5.58V7.82a14 14 0 0 0 8-2.46v-.28a21.62 21.62 0 0 1-8-2.82v-.67s4.99 2.99 8.65 2.94z" />
                <path
                    d="M20.25 4.16v-.88h-1.09c-3.48 0-8.41-2.9-8.46-2.93L10.11 0l-.56.37A23.13 23.13 0 0 1 .94 3.31L0 3.4l.06.84v.41a60.37 60.37 0 0 0 2.21 11.22c.46 1 4.73 4.52 7.22 6.52l.68.55 7.57-6.42.14-.15c2.45-3.23 2.39-11.84 2.37-12.21zm-1.7.93c-.05 2.93-.5 8.24-2 10.39l-6.36 5.41a60.72 60.72 0 0 1-6.26-5.52 60.51 60.51 0 0 1-2-9.7c-.05-.34-.09-.67-.12-1a25.73 25.73 0 0 0 8.34-2.87 24.77 24.77 0 0 0 8.41 3 2.81 2.81 0 0 1-.01.29z"
                />
                <path
                    fill="#fff"
                    d="M19.44 4.64V4h-.85c-3.32 0-8-2.76-8-2.79l-.46-.28-.43.27A21.32 21.32 0 0 1 1.55 4H.84l.05.64v.47A54.55 54.55 0 0 0 3 15.53c.43.94 4.83 4.55 6.7 6l.52.42 7-5.91.1-.12C19.5 13 19.44 5 19.44 4.64zm-1.28.72c-.05 2.73-.46 7.9-1.95 9.93l-6.05 5.15a52 52 0 0 1-6-5.3 54.53 54.53 0 0 1-1.87-9.3A8.08 8.08 0 0 0 2.18 5a23.65 23.65 0 0 0 8-2.73c1.25.69 4.87 2.57 8 2.82a2.83 2.83 0 0 1-.02.27z"
                />
                <path fill="#dcc128" d="M18.12 5.08v.28a14 14 0 0 1-8 2.46 18.19 18.19 0 0 1-7.85-2c0-.29-.08-.58-.11-.86a23.65 23.65 0 0 0 8-2.73 20.74 20.74 0 0 0 7.96 2.85z" />
            </g>
        </g>
    </symbol>
    <symbol id="sev" viewBox="0 0 18.56 22.31">
        <g id="Layer_2">
            <g id="Layer_1-2">
                <path
                    fill="#fff"
                    d="M14.31 3.41H14a6 6 0 0 1-1.83-.29A4 4 0 0 1 9.53.82a3 3 0 0 1-.64 1 4.16 4.16 0 0 1-1.56 1.09 6.42 6.42 0 0 1-2.48.5c-1.95 0-3.56-.3-4.22-2l-.16-.14.05 13.41a13.75 13.75 0 0 0 1.18 1.75l.67.36v-.9a17.13 17.13 0 0 0 2.08 1.91l-.53.44-.26.2a16.44 16.44 0 0 0 5.75 3.3h.26c6.33-2 8.65-6.69 8.62-7.15V1.09a4.52 4.52 0 0 1-3.98 2.32zM18 6.62l-.35.29v-4.2c-.11.65-1.44 1.51-3 1.69a.87.87 0 0 1-.32.06H14a6.67 6.67 0 0 1-2.21-.38l-.5-.21-.29-.15a2.94 2.94 0 0 1-.64-.42L10 3.08a2.43 2.43 0 0 1-.44-.52 1.14 1.14 0 0 1-.18-.32c-.15.55-1.65 1.66-3.15 2a4.94 4.94 0 0 1-.94.12h-.47a4.92 4.92 0 0 1-1.21-.12A3.1 3.1 0 0 1 2.72 4 2.3 2.3 0 0 1 2 3.53a1.18 1.18 0 0 1-.29-.3 1.32 1.32 0 0 1-.2-.32l-.1-.2.1.1v-.22l.13.13a4.72 4.72 0 0 0 3.17 1 6.63 6.63 0 0 0 1.54-.12 4.82 4.82 0 0 0 3.18-2 3.94 3.94 0 0 0 .74.89c.17.27.34.46.52.42a4.71 4.71 0 0 0 1 .51 6.17 6.17 0 0 0 2.21.35h.79A3.86 3.86 0 0 0 18 1.82z"
                    transform="translate(0 -.04)"
                />
                <path
                    fill="#fff"
                    d="M17.84 2v1.53l-.39.3v-.94c-.12.66-1.45 1.51-3 1.7h-.62a6.89 6.89 0 0 1-2.2-.39l-.51-.2-.28-.15a3.92 3.92 0 0 1-.64-.42 2.75 2.75 0 0 1-.26-.22 2.38 2.38 0 0 1-.43-.52.94.94 0 0 1-.19-.32c-.21.63-1.71 1.7-3.2 2.09a4.93 4.93 0 0 1-.94.11h-.47a5.47 5.47 0 0 1-1.21-.13h-.07a3.53 3.53 0 0 1-.84-.25 2.48 2.48 0 0 1-.76-.47 2.13 2.13 0 0 1-.29-.31 1.32 1.32 0 0 1-.2-.32v-.32l.14.14A4.7 4.7 0 0 0 4.69 4a6.59 6.59 0 0 0 1.53-.17 4.82 4.82 0 0 0 3.18-2 3.94 3.94 0 0 0 .74.89c.16.27-.83-1.92.52.42a4.68 4.68 0 0 0 1 .5 6.24 6.24 0 0 0 2.18.36 7 7 0 0 0 .79 0 3.8 3.8 0 0 0 3.21-2zm.48-1a1.34 1.34 0 0 1-.13.27V.72z"
                    transform="translate(0 -.04)"
                />
                <path
                    d="M1.51 2.94A4.71 4.71 0 0 0 4.69 4a6.59 6.59 0 0 0 1.53-.17 4.82 4.82 0 0 0 3.18-2 3.94 3.94 0 0 0 .74.89 5.3 5.3 0 0 0 .52.42 4.68 4.68 0 0 0 1 .5 6.24 6.24 0 0 0 2.18.36 7 7 0 0 0 .79 0 3.8 3.8 0 0 0 3.21-2v12.64c-.24 1-2.59 5.06-8.42 7a16.13 16.13 0 0 1-5.58-3.17l-.25.2-.3.25a16.79 16.79 0 0 0 6 3.36l.26.07.18-.08c6.29-2 8.71-6.54 8.83-7.35V0l-.32.74-.2.46c-.88 1.58-2.36 2.05-4.15 2.05h-.06a4.7 4.7 0 0 1-1.44-.22A3.8 3.8 0 0 1 9.72.89L9.4.1l-.32.79C8.47 2.4 6.5 3.28 4.69 3.28S2.23 3 .81 1.38L0 .64l.05 14.22.13.37.05.09a12 12 0 0 0 1.31 1.86v-.55l.27-.22a16.22 16.22 0 0 1-1.09-1.65L.67 2a4.94 4.94 0 0 0 .67.77"
                    transform="translate(0 -.04)"
                />
                <path
                    fill="#f1f1e7"
                    d="M17.55 14.74c-.08.17-4 5-8 6.11h-.22a18.56 18.56 0 0 1-5-2.85 16.52 16.52 0 0 1-2.09-1.92 11.71 11.71 0 0 1-.8-.92v-2.52l-.08-5.5V2.89l.1.2a1.32 1.32 0 0 0 .2.32 2.13 2.13 0 0 0 .29.31 2.48 2.48 0 0 0 .76.47 3.53 3.53 0 0 0 .84.25 6.13 6.13 0 0 0 1.21.12h.47a4.93 4.93 0 0 0 .94-.11c1.49-.39 3-1.5 3.14-2.06a.94.94 0 0 0 .19.32 2.38 2.38 0 0 0 .43.52 2.75 2.75 0 0 0 .26.22 3.92 3.92 0 0 0 .64.42l.28.15.51.2a6.89 6.89 0 0 0 2.2.39h.62c1.53-.19 2.86-1 3-1.7v4.21z"
                    transform="translate(0 -.04)"
                />
                <path fill="#fff" d="M1.34 3v.1l-.1-.2z" transform="translate(0 -.04)" />
                <path fill="#ff3939" d="M3.5 4.44l-.19.13-1.92 1.28V3.09a1.32 1.32 0 0 0 .2.32 2.13 2.13 0 0 0 .29.31 2.48 2.48 0 0 0 .76.47 3.53 3.53 0 0 0 .84.25z" transform="translate(0 -.04)" />
                <path fill="none" d="M6.13 4.4l-.01.02" />
                <path
                    fill="#ff3939"
                    d="M10.15 3.5l-8.59 7.19L1.41 7l3.3-2.47h.47a4.93 4.93 0 0 0 .94-.11c1.49-.39 3-1.5 3.14-2.06a.94.94 0 0 0 .19.32 2.38 2.38 0 0 0 .43.52 2.75 2.75 0 0 0 .26.22zm4.31 1.09L1.58 15.27l-.05-3.45 9.56-7.75.51.2a6.89 6.89 0 0 0 2.2.39h.3a1.15 1.15 0 0 0 .36-.07z"
                    transform="translate(0 -.04)"
                />
                <path fill="#fff" d="M4.32 18l-.54.44a14.18 14.18 0 0 1-1.95-2l.4-.32A17.75 17.75 0 0 0 4.32 18z" transform="translate(0 -.04)" />
                <path d="M3.78 18.43l-.25.2a13.51 13.51 0 0 1-2-2l.27-.22a14 14 0 0 0 1.98 2.02z" transform="translate(0 -.04)" />
                <path d="M3.53 18.63l-.3.25a12.93 12.93 0 0 1-1.69-1.7v-.55a13.93 13.93 0 0 0 1.99 2z" transform="translate(0 -.04)" />
                <path fill="#fff" d="M17.84 3.49v3.28l-.36.28-.03-3.26.39-.3z" />
                <path fill="#ff3939" d="M17.45 3.83V7.1L4.32 18a16.52 16.52 0 0 1-2.09-1.92z" transform="translate(0 -.04)" />
            </g>
        </g>
    </symbol>
    <symbol id="mad" viewBox="0 0 23.51 23.51">
        <g id="Layer_2">
            <g id="Layer_1-2">
                <path
                    fill="#fffff9"
                    d="M22.42 9a3.45 3.45 0 0 0-.17-.63 7.65 7.65 0 0 0-.44-1.12.77.77 0 0 0-.14-.25 2.24 2.24 0 0 0-.26-.54 3.47 3.47 0 0 0-.27-.46 10.72 10.72 0 0 0-2.88-3.12A10.85 10.85 0 0 0 11.77.73 11 11 0 0 0 6.2 21.26a.31.31 0 0 0 .15.1 3.87 3.87 0 0 0 .64.33.7.7 0 0 0 .23.11l.29.14a8.82 8.82 0 0 0 1.13.38 1.75 1.75 0 0 0 .51.14 10.57 10.57 0 0 0 2.62.33 11.07 11.07 0 0 0 11-11A10.24 10.24 0 0 0 22.42 9zm-.78 2.76a9.89 9.89 0 0 1-9.87 9.89 8.51 8.51 0 0 1-1.67-.16L21.47 10a9.35 9.35 0 0 1 .17 1.75z"
                />
                <path
                    fill="#dcc128"
                    d="M22.8 7.77l-.36.39-.19.19-.14.13-.05.07-.75.74L9.56 21.38l-.33.35-.4.4-.05.05-.14.14-.21.22-.34.37A7.21 7.21 0 0 1 7 22.49l-.3-.14L7 22l.19-.19.12-.14.42-.42.27-.33L20.82 7.84l.32-.31.36-.36.05-.07.12-.1.2-.19.34-.37a.94.94 0 0 1 .14.26 6.72 6.72 0 0 1 .45 1.07z"
                />
                <path
                    fill="#fff"
                    d="M22.35 6.68l-.35.37-.18.19-.12.12h-.07l-.36.38-.27.4L8.38 21l-.31.33-.38.38-.05.06-.13.14-.19.19-.32.39-.3-.14a7.46 7.46 0 0 1-1-.55l.3-.35.18-.19.1-.08v-.06l.35-.36.37-.33L20.3 6.82l.3-.29.4-.39h.06l.08-.14.12-.14.35-.37a6.49 6.49 0 0 1 .55 1 .86.86 0 0 1 .19.19z"
                />
                <path
                    fill="#fffff9"
                    d="M23.51 11.75a11.51 11.51 0 0 1-.69 3.94l-.88.88-.58.59-.52.52-.24.23-2.6 2.64-.26.26-1.1 1.09-.88.9a11.14 11.14 0 0 1-4 .71 10.88 10.88 0 0 1-3.21-.46l.38-.39.34-.34.06-.07.76-.77a8.51 8.51 0 0 0 1.67.16 9.89 9.89 0 0 0 9.87-9.89 9.34 9.34 0 0 0-.16-1.75l.36-.36.38-.4.07-.07.35-.35.38-.4a11.39 11.39 0 0 1 .5 3.33z"
                />
                <path fill="#8367ff" d="M2.36 17.18s2.86 2.8 4.45 4.7L21.5 7s-.5-5.32-5.13-4z" />
                <path
                    d="M22.63 8.78a6.36 6.36 0 0 0-.19-.62A8.84 8.84 0 0 0 22 7.05a1.23 1.23 0 0 0-.12-.26 7.52 7.52 0 0 0-.56-1 .34.34 0 0 0-.1-.16A11.27 11.27 0 1 0 6 21.45a5.75 5.75 0 0 0 .77.42L7 22c.1.05.19.08.29.14.37.15.73.29 1.11.41a3.14 3.14 0 0 1 .51.12 10.37 10.37 0 0 0 2.83.37 10.81 10.81 0 0 0 4.87-1.13 11 11 0 0 0 5.3-5.33A10.94 10.94 0 0 0 23 11.75a11 11 0 0 0-.37-2.97zM18 20.55a10.73 10.73 0 0 1-6.23 2 9.45 9.45 0 0 1-2.43-.29 2.36 2.36 0 0 1-.51-.12 7.66 7.66 0 0 1-1.14-.39 1.14 1.14 0 0 1-.3-.13.53.53 0 0 1-.21-.11 4.45 4.45 0 0 1-.81-.42c-.19-.1-.38-.22-.57-.34a10.63 10.63 0 0 1-3.21-3.33 1.67 1.67 0 0 1-.18-.28A10.62 10.62 0 0 1 1 11.75a10.79 10.79 0 0 1 16.79-8.94A11.08 11.08 0 0 1 21 6.14a5.81 5.81 0 0 1 .47.89s.05.09.07.14a1.23 1.23 0 0 1 .12.26 7.35 7.35 0 0 1 .44 1.13 3.5 3.5 0 0 1 .15.64 9.16 9.16 0 0 1 .33 2.55 10.88 10.88 0 0 1-4.58 8.8z"
                />
                <path
                    d="M23 8.38a3.39 3.39 0 0 0-.21-.61 6.1 6.1 0 0 0-.45-1.09.94.94 0 0 0-.14-.26 6.49 6.49 0 0 0-.55-1 11.75 11.75 0 1 0-16 16.37 7.46 7.46 0 0 0 1 .55l.3.14a7.44 7.44 0 0 0 1.11.42 1.59 1.59 0 0 0 .47.14 10.88 10.88 0 0 0 3.21.46 11.14 11.14 0 0 0 4-.71A11.78 11.78 0 0 0 23 8.38zm-1 3.37a10.31 10.31 0 0 1-10.23 10.31 9.64 9.64 0 0 1-2-.21l-.51-.12a6.53 6.53 0 0 1-1.16-.37 1.66 1.66 0 0 1-.31-.12l-.23-.1a6.21 6.21 0 0 1-.81-.42 10.24 10.24 0 0 1-3.94-4 10.08 10.08 0 0 1-1.3-5A10.29 10.29 0 0 1 17 2.88a10.16 10.16 0 0 1 3.6 3.65 4.79 4.79 0 0 1 .47.86.61.61 0 0 1 .07.14c.05.09.08.19.12.28a8.32 8.32 0 0 1 .4 1.19 4.77 4.77 0 0 1 .17.65 10.55 10.55 0 0 1 .23 2.1z"
                />
                <path
                    fill="#fff"
                    d="M22.28 9.13a2.88 2.88 0 0 0-.17-.64 10.56 10.56 0 0 0-.42-1.11 1 1 0 0 0-.14-.28.31.31 0 0 0-.05-.1 10 10 0 0 0-.5-.91A11 11 0 0 0 11.77.9 10.86 10.86 0 0 0 .9 11.75a10.39 10.39 0 0 0 1.48 5.41v.06a10.75 10.75 0 0 0 3.55 3.67 2.59 2.59 0 0 0 .39.25 8.62 8.62 0 0 0 .8.41.53.53 0 0 0 .21.11l.3.14a9 9 0 0 0 1.14.38 2.85 2.85 0 0 0 .5.14 10.82 10.82 0 0 0 11.56-4.64 10.68 10.68 0 0 0 1.77-5.93 10.11 10.11 0 0 0-.32-2.62zm-.64 2.62a9.89 9.89 0 0 1-9.87 9.89 8.51 8.51 0 0 1-1.67-.16 2.56 2.56 0 0 1-.54-.1A7.05 7.05 0 0 1 8.38 21a1.66 1.66 0 0 1-.31-.12.92.92 0 0 1-.23-.09L7 20.43a10 10 0 0 1-3.94-4 9.86 9.86 0 0 1 17.23-9.58 5.76 5.76 0 0 1 .46.89.31.31 0 0 1 .06.13 1.14 1.14 0 0 1 .13.3 7.79 7.79 0 0 1 .36 1.16 5.28 5.28 0 0 1 .16.66 8.69 8.69 0 0 1 .18 1.76z"
                />
                <path fill="#fffff9" d="M21.64 11.75a9.89 9.89 0 0 1-9.87 9.89 8.51 8.51 0 0 1-1.67-.16L21.47 10a9.35 9.35 0 0 1 .17 1.75z" />
            </g>
        </g>
    </symbol>
    <symbol id="vil" viewBox="0 0 22.84 22.84">
        <g id="Layer_2">
            <g id="Layer_1-2">
                <circle cx="11.41" cy="11.41" r="9.07" fill="#ffe300" />
                <path fill="#ff191a" d="M20.85 6.94l-1.7-2.16L4.71 19.27l2.18 1.74L20.85 6.94z" />
                <path fill="#ff191a" d="M21.87 12.17s.47-2.06-.35-3L9.64 20.92a5.46 5.46 0 0 0 3.74 0z" transform="translate(-.01)" />
                <path d="M11.42 0a11.42 11.42 0 1 0 11.43 11.41A11.42 11.42 0 0 0 11.42 0zm0 22.08A10.68 10.68 0 1 1 22.1 11.4a10.7 10.7 0 0 1-10.68 10.68z" transform="translate(-.01)" />
                <path
                    fill="#fff"
                    d="M11.42.73A10.68 10.68 0 1 0 22.1 11.41 10.69 10.69 0 0 0 11.42.73zM13.21 21a9 9 0 0 1-1.79.18A9.49 9.49 0 0 1 9.74 21a9 9 0 0 1-2.15-.63 8.66 8.66 0 0 1-2.4-1.5 7.7 7.7 0 0 1-.6-.54 9.7 9.7 0 0 1 14.22-13.2 9.36 9.36 0 0 1 1.48 2.39A7.83 7.83 0 0 1 21 9.68a8.4 8.4 0 0 1 .18 1.73v.38a7.4 7.4 0 0 1-.08.81 4.5 4.5 0 0 1-.08.51A9.62 9.62 0 0 1 13.21 21z"
                    transform="translate(-.01)"
                />
                <path fill="#5fa7eb" d="M11.42 21.13a9.72 9.72 0 1 1 9.72-9.72 9.73 9.73 0 0 1-9.72 9.72zm0-18.79a9.07 9.07 0 1 0 9.07 9.07 9.07 9.07 0 0 0-9.07-9.07z" transform="translate(-.01)" />
            </g>
        </g>
    </symbol>
    <symbol id="rev" viewBox="0 0 20 23.07">
        <g id="Layer_2">
            <g id="Layer_1-2">
                <path d="M20 0l-.1 15.44a16.72 16.72 0 0 1-9.79 7.63h-.27C9.58 23 3.31 21.16.06 15.59L0 15.48V0z" />
                <path fill="#fff" d="M.85.73H19.1V15a15.26 15.26 0 0 1-9 7.05h-.2a16.54 16.54 0 0 1-9-6.92" />
                <path
                    fill="#af64e6"
                    d="M18.29 15.46a19.48 19.48 0 0 1-1.85 2V3.58c.64.11 1.31.23 2 .38zM3.61 3.57v13.88c-.23-.22-.46-.43-.68-.68l-.13-.13c-.29-.32-.57-.65-.83-1v-2.57L1.88 3.9c.52-.1 1.12-.23 1.73-.33zm5.03-.51v17.85a19.38 19.38 0 0 1-2.46-1.42V3.23c.76-.07 1.59-.14 2.46-.17zm5.76.23v16a14.77 14.77 0 0 1-2.46 1.59V3.08q1.2.06 2.46.21z"
                />
                <path fill="#fff23f" d="M1.88 1.83H18.4v2.46H1.88z" />
                <path fill="#fff" d="M1.52 3.57h17.25V4.9H1.52z" />
            </g>
        </g>
    </symbol>
    <symbol id="val" viewBox="0 0 18.9 22.94">
        <g id="Layer_2">
            <g id="Layer_1-2">
                <path
                    fill="#fff"
                    d="M9.13 3a5.58 5.58 0 0 1-1 .66 6.24 6.24 0 0 1-1.74.75 6 6 0 0 1-.72.11H5a5.17 5.17 0 0 1-1.24-.12h-.1a4.92 4.92 0 0 1-.55-.14 1 1 0 0 1-.32-.12A2 2 0 0 1 2 3.63a1.42 1.42 0 0 1-.29-.31.49.49 0 0 1-.16-.32 1.28 1.28 0 0 0-.11-.2l.11.09V2.7a2.7 2.7 0 0 1-.91-1.2l-.17-.2v13.77a1 1 0 0 0 .1.17 12.89 12.89 0 0 0 1.11 1.62h.06L2 17l.37.2v-.6l-.14-.14-.42.32c-.38-.52-.74-1.06-1.07-1.62L.69 2.05a4.78 4.78 0 0 0 .69.8V3a.24.24 0 0 0-.06-.09V3a1.51 1.51 0 0 1 .11.22 1.36 1.36 0 0 0 .21.32 1.18 1.18 0 0 0 .29.3 2.15 2.15 0 0 0 .77.49 2.54 2.54 0 0 0 .46.17l.41.09h.06a5.83 5.83 0 0 0 1.25.13h.87a5.81 5.81 0 0 0 .58-.09l.57-.18A7.16 7.16 0 0 0 7.77 4c.13-.07.27-.17.39-.24a6 6 0 0 0 .66-.46L9 3.12a2.1 2.1 0 0 0 .38-.41 1.16 1.16 0 0 1-.25.29zm8.18.71l-.25.16H17a5.13 5.13 0 0 1-1 .41 5.79 5.79 0 0 1-1 .23h-1a6.83 6.83 0 0 1-1.89-.38c-.19-.06-.36-.14-.53-.2-.09-.06-.19-.1-.25-.15a2.76 2.76 0 0 1-.64-.43 2.73 2.73 0 0 1-.25-.23 3.3 3.3 0 0 1-.44-.53 2 2 0 0 1-.18-.32 1.63 1.63 0 0 1-.11.23 1.76 1.76 0 0 0 .14.23 2.34 2.34 0 0 0 .46.53l.24.23a4 4 0 0 0 .64.43 1.59 1.59 0 0 0 .29.15h.09l.43.17a6.5 6.5 0 0 0 2 .38h.85A5.74 5.74 0 0 0 16 4.46l.47-.2.31-.15c.09-.07.18-.11.27-.17a3 3 0 0 0 .45-.34 1.64 1.64 0 0 0 .21-.25 1.8 1.8 0 0 1-.4.33zm1.16-2A4.46 4.46 0 0 1 16 3.31a7.25 7.25 0 0 1-1.32.2H14a5.38 5.38 0 0 1-1.48-.28 3.77 3.77 0 0 1-1-.46A3.71 3.71 0 0 1 9.79.84a3.17 3.17 0 0 1-.66 1 3.61 3.61 0 0 1-1 .79 4.28 4.28 0 0 1-.61.37 6.16 6.16 0 0 1-1.79.48h-.75a10.29 10.29 0 0 1-1.84-.13 3.81 3.81 0 0 1-1.42-.56 3.88 3.88 0 0 0 1.42.78A5.9 5.9 0 0 0 5 3.88h.75a4.12 4.12 0 0 0 .83-.14 5.61 5.61 0 0 0 1.63-.6A4.06 4.06 0 0 0 9.51 2a1.33 1.33 0 0 0 .14-.19c0-.06.09-.13.14-.2a2.12 2.12 0 0 0 .44.59 1.64 1.64 0 0 0 .29.3 1.44 1.44 0 0 0 .18.25c.13.14.23.2.35.18l.42.25a4 4 0 0 0 .64.27 5.82 5.82 0 0 0 1.89.41 2.54 2.54 0 0 0 .39 0 4.43 4.43 0 0 0 .81-.07 5.34 5.34 0 0 0 .8-.13 3.88 3.88 0 0 0 2.08-1.24 1.61 1.61 0 0 0 .21-.3l.14-.23V6.8l-.14.11-.23.18V2.83a.69.69 0 0 1-.14.3v6.65l-.11 5.57a19.57 19.57 0 0 1-1.86 2v-8c-.71-.12-1.38-.23-2.06-.29v10.1a14.83 14.83 0 0 1-2.46 1.6V8.87a30.8 30.8 0 0 0-3.33 0v12a19.63 19.63 0 0 1-2.4-1.49V9c-.94.09-1.81.22-2.59.34V17a12.81 12.81 0 0 0 1.47 1.29l-.18.14-.39.3-.17.16-.07.11a16.93 16.93 0 0 0 2 1.48 15.54 15.54 0 0 0 2.37 1.29 13 13 0 0 0 1.51.57h.13l.13-.06a17.17 17.17 0 0 0 1.8-.7A13.76 13.76 0 0 0 14 20.4a12.82 12.82 0 0 0 2-1.59 11.64 11.64 0 0 0 2.46-3.08 2.3 2.3 0 0 0 .31-.8V1.12a2.65 2.65 0 0 1-.3.55zm-16.95 1l.13.1zM9.13 3a5.58 5.58 0 0 1-1 .66 6.24 6.24 0 0 1-1.74.75 6 6 0 0 1-.72.11H5a5.17 5.17 0 0 1-1.24-.12h-.1a4.92 4.92 0 0 1-.55-.14v.24l.41.09h.06a5.83 5.83 0 0 0 1.25.13h.87a5.81 5.81 0 0 0 .58-.09l.57-.18A5.22 5.22 0 0 0 7.77 4c.13-.07.27-.17.39-.24a6 6 0 0 0 .66-.46L9 3.12a2.1 2.1 0 0 0 .38-.41 1.16 1.16 0 0 1-.25.29zM15 4.52h-.14a.38.38 0 0 1-.15 0h-.05a1.5 1.5 0 0 1-.3 0 2.16 2.16 0 0 1-.36 0 6.83 6.83 0 0 1-1.89-.38c-.19-.06-.36-.14-.53-.2-.09-.06-.19-.1-.25-.15a2.76 2.76 0 0 1-.64-.43 2.73 2.73 0 0 1-.25-.23A3.3 3.3 0 0 1 10 2.6a2 2 0 0 1-.18-.32 1.63 1.63 0 0 1-.11.23v.05a1.76 1.76 0 0 0 .14.23 2.34 2.34 0 0 0 .46.53l.24.23a4 4 0 0 0 .64.43 1.59 1.59 0 0 0 .29.15h.09l.43.17a6.5 6.5 0 0 0 2 .38.81.81 0 0 0 .22 0 1.61 1.61 0 0 0 .31 0 1.71 1.71 0 0 0 .32 0A6.53 6.53 0 0 0 16 4.46v-.17a5.79 5.79 0 0 1-1 .23z"
                />
                <path
                    fill="#fff"
                    d="M18 9.28v.48c-.66-.16-1.33-.28-2-.39s-1.37-.23-2-.29c-.84-.1-1.67-.17-2.46-.21a30.8 30.8 0 0 0-3.33 0c-.87 0-1.7.1-2.46.17-.94.09-1.81.22-2.59.34s-1.16.23-1.73.34V13l.05 2.59c.26.35.54.68.83 1l-.42.32a20.12 20.12 0 0 1-1.15-1.75L.69 2.05a4.78 4.78 0 0 0 .69.8V3a.24.24 0 0 0-.06-.09V3l.05 2.1v4.12C1.9 9.11 2.48 9 3.11 8.9c.78-.11 1.65-.23 2.59-.31.76-.07 1.59-.13 2.46-.17h3.33c.79.05 1.62.11 2.46.2.68.06 1.35.17 2.06.27s1.31.24 1.99.39z"
                />
                <path
                    fill="#fff"
                    d="M18.32 2.05v1.58l-.26.2-.14.11V3a.24.24 0 0 1 0 .12.26.26 0 0 1-.07.11.26.26 0 0 1-.07.11 1.64 1.64 0 0 1-.21.25 3 3 0 0 1-.45.34c-.09.06-.18.1-.27.17l-.31.15-.47.2a6.39 6.39 0 0 1-1.15.26h-.85a6.5 6.5 0 0 1-2-.38l-.43-.17h-.09a2.32 2.32 0 0 1-.44-.16 4 4 0 0 1-.64-.43l-.24-.23a2.34 2.34 0 0 1-.46-.53 1.76 1.76 0 0 1-.14-.23v-.05.17a2 2 0 0 1-.63.42l-.19.16a6 6 0 0 1-.66.46L7.76 4a5.1 5.1 0 0 1-.92.42l-.57.18a5.81 5.81 0 0 1-.58.09h-.86a5.83 5.83 0 0 1-1.25-.13h-.06l-.41-.09a2.54 2.54 0 0 1-.46-.17 2.15 2.15 0 0 1-.77-.49 1.18 1.18 0 0 1-.29-.3 1.36 1.36 0 0 1-.21-.32v-.34l.14.15a3.87 3.87 0 0 0 1.65.84l.32.08A5.59 5.59 0 0 0 4.78 4a3.75 3.75 0 0 0 .67 0 .45.45 0 0 0 .23 0 3.86 3.86 0 0 0 .68-.11 5.89 5.89 0 0 0 1.36-.46c.14-.06.28-.14.41-.21L8.47 3a3.65 3.65 0 0 0 .78-.69A1.94 1.94 0 0 0 9.51 2a1.33 1.33 0 0 0 .14-.19 3.38 3.38 0 0 0 .75.89 4.76 4.76 0 0 0-.15-.47c-.07-.25 0-.33.49.58l.22.37a2.82 2.82 0 0 0 .44.26l.6.26a5.36 5.36 0 0 0 1 .3l.37.06a6.54 6.54 0 0 0 .89.06A6.87 6.87 0 0 0 15 4a5.67 5.67 0 0 0 1-.18 3.73 3.73 0 0 0 .56-.2l.13-.06a2.55 2.55 0 0 0 .46-.25l.32-.26.2-.17a.31.31 0 0 0 .09-.11 2.45 2.45 0 0 0 .29-.35 2.51 2.51 0 0 0 .27-.37zm.5-1.05a2.44 2.44 0 0 1-.14.28V.75z"
                />
                <path
                    d="M18.69.77l-.2.46c-.9 1.62-2.42 2.11-4.27 2.11a5 5 0 0 1-1.48-.23A4 4 0 0 1 10 .92L9.65.11l-.34.81c-.61 1.55-2.63 2.45-4.5 2.45S2.3 3.05.83 1.42L0 .66l.05 14.61.13.37.07.09a11.59 11.59 0 0 0 1.34 1.92v-.57l.2-.16.07-.07a19.55 19.55 0 0 1-1.12-1.69L.69 2.05a4.78 4.78 0 0 0 .69.8l.14.15a3.87 3.87 0 0 0 1.65.84l.32.08A5.59 5.59 0 0 0 4.78 4h.67a.45.45 0 0 0 .23 0 5.07 5.07 0 0 0 .68-.11 5.89 5.89 0 0 0 1.36-.46c.14-.06.28-.14.41-.21L8.47 3a3.65 3.65 0 0 0 .78-.69A1.94 1.94 0 0 0 9.51 2a1.33 1.33 0 0 0 .14-.19 3.38 3.38 0 0 0 .75.89c.18.15.35.29.54.43l.44.26.61.26a5.36 5.36 0 0 0 .95.26l.37.06a6.54 6.54 0 0 0 .89.03h.8a5.67 5.67 0 0 0 1-.18 3.73 3.73 0 0 0 .56-.2l.13-.06a2.55 2.55 0 0 0 .46-.25l.32-.26a.82.82 0 0 0 .2-.17.31.31 0 0 0 .09-.11 2.45 2.45 0 0 0 .29-.35 2.5 2.5 0 0 0 .21-.35V15c-.24 1-2.66 5.19-8.65 7.14a16.54 16.54 0 0 1-5.74-3.26L3.8 19l-.17.15-.32.26a17.32 17.32 0 0 0 6.13 3.45l.26.08.2-.1c6.44-2.08 8.93-6.71 9-7.53V0z"
                />
                <path fill="#ffd400" d="M5.7 9v10.38c-.4-.28-.83-.57-1.26-.91a11.43 11.43 0 0 1-1.29-1.11 5.3 5.3 0 0 1-.67-.67v-.34a8.7 8.7 0 0 0 .67.69V9.36c.74-.12 1.61-.25 2.55-.36z" />
                <path fill="#f1f1e7" d="M9.54 2.51a.18.18 0 0 1-.07.08v-.12z" />
                <path fill="#ffd400" d="M11.49 8.87v11.89a8.62 8.62 0 0 1-1.64.65l-.09.05h-.13a13.54 13.54 0 0 1-1.47-.63v-12c1.05-.02 2.16-.02 3.33.04zm4.51.5v8a24.31 24.31 0 0 1-2 1.79V9.08c.63.06 1.3.17 2 .29z" />
                <path fill="#f1f1e7" d="M17.92 3v.12a.26.26 0 0 1-.11.14.47.47 0 0 0 .11-.26z" />
                <path fill="#fff" d="M1.38 3.08v.11A1.18 1.18 0 0 0 1.27 3z" />
                <path fill="none" d="M6.3 4.56l-.02.02" />
                <path fill="#fff" d="M4.44 18.47l-.56.45a12.13 12.13 0 0 1-1.66-1.7l-.13-.14-.16-.2.42-.32.14.14a5.3 5.3 0 0 0 .67.67 11.37 11.37 0 0 0 1.24 1.06z" />
                <path d="M3.88 18.92l-.26.21a13.5 13.5 0 0 1-2-2.07l.28-.22a13.93 13.93 0 0 0 1.98 2.08z" />
                <path d="M3.62 19.13l-.31.26a12.86 12.86 0 0 1-1.72-1.74v-.57a13.57 13.57 0 0 0 2.03 2.05z" />
                <path fill="#fff" d="M18.32 3.63V7l-.37.29-.03-3.35.14-.11.26-.2z" />
                <path fill="#ff2424" d="M17.87 15.33a19.57 19.57 0 0 1-1.86 2v-8c.64.11 1.31.23 2 .39zM3.11 9.36v8a7.06 7.06 0 0 1-.67-.67l-.14-.14c-.29-.32-.57-.65-.83-1L1.42 13V9.73a16.2 16.2 0 0 1 1.69-.37z" />
                <path
                    fill="#242424"
                    d="M18 9.28c-.66-.15-1.33-.26-2-.37s-1.37-.21-2-.27c-.84-.09-1.67-.15-2.46-.2H8.21c-.87 0-1.7.1-2.46.17-.94.08-1.81.2-2.59.31s-1.16.21-1.73.32L1.35 7V5.07L1.27 3h.06v.11a1.06 1.06 0 0 0 .21.31 1.06 1.06 0 0 0 .29.27 2.08 2.08 0 0 0 .77.46 2.47 2.47 0 0 0 .46.15l.41.1h.06a6.54 6.54 0 0 0 1.25.12h.49a2.41 2.41 0 0 0 .38 0 5.81 5.81 0 0 0 .58-.09 2.17 2.17 0 0 0 .57-.17 6.14 6.14 0 0 0 .92-.38c.13-.08.27-.17.39-.23a5.74 5.74 0 0 0 .66-.43L9 3.08A.57.57 0 0 0 9.13 3a1.07 1.07 0 0 0 .26-.26v-.05a.18.18 0 0 0 .07-.08v.05a1.76 1.76 0 0 0 .14.23 2.05 2.05 0 0 0 .46.47 1.7 1.7 0 0 0 .24.22 3.27 3.27 0 0 0 .64.4 1.59 1.59 0 0 0 .29.15h.09l.43.15a7.18 7.18 0 0 0 2 .35h.53a.71.71 0 0 0 .29 0 5.3 5.3 0 0 0 1.43-.3l.47-.19.32-.14.21-.12a.06.06 0 0 0 .06 0l.25-.16.2-.16a.93.93 0 0 0 .21-.23.16.16 0 0 0 .07-.09l.07-.07v4.21z"
                />
                <path fill="#ff2424" d="M8.16 8.85v12a19 19 0 0 1-2.46-1.47V9c.76 0 1.59-.12 2.46-.15zm5.84.23v10.08a14.83 14.83 0 0 1-2.46 1.6V8.87c.74.04 1.57.13 2.46.21z" />
            </g>
        </g>
    </symbol>
</svg>
